<?xml version="1.0" encoding="UTF-8" ?>
<!DOCTYPE svg PUBLIC "-//W3C//DTD SVG 1.1//EN" "http://www.w3.org/Graphics/SVG/1.1/DTD/svg11.dtd">
<svg width="1081pt" height="811pt" viewBox="0 0 1081 811" version="1.1" xmlns="http://www.w3.org/2000/svg">
<path fill="#000000" stroke="#000000" stroke-width="0.09375" opacity="1.00" d=" M 701.67 36.75 C 704.70 37.82 707.69 39.00 710.69 40.15 C 712.92 71.39 709.45 102.61 709.03 133.83 C 717.82 136.15 727.11 139.78 732.25 147.77 C 738.06 156.40 736.17 167.35 734.81 177.00 C 740.36 178.96 745.46 182.23 749.44 186.59 C 750.84 188.00 750.19 190.17 750.36 191.95 C 749.98 201.85 750.49 212.02 747.37 221.57 C 744.34 231.19 739.90 240.34 737.50 250.17 C 740.73 256.71 746.39 261.49 750.49 267.43 C 761.97 283.33 770.44 301.08 779.65 318.33 C 786.50 331.48 794.75 343.83 802.54 356.44 C 806.19 362.54 810.84 368.19 813.07 375.05 C 816.33 384.34 816.53 394.71 821.74 403.29 C 825.80 410.10 830.14 416.76 834.89 423.12 C 837.66 426.86 840.93 430.40 842.43 434.90 C 845.04 442.33 844.08 450.32 845.00 458.00 C 845.98 465.41 853.04 470.38 853.70 477.89 C 854.85 492.48 851.11 506.80 848.14 520.95 C 846.87 527.76 840.83 532.14 835.03 535.07 C 823.35 540.87 811.16 546.43 798.03 547.72 C 783.59 548.50 769.15 546.81 754.88 544.70 C 751.30 544.13 747.57 543.62 744.48 541.59 C 739.77 538.54 736.37 533.99 732.75 529.81 C 725.13 542.93 710.55 549.68 702.06 562.04 C 697.51 568.40 696.97 576.42 696.33 583.95 C 694.17 608.85 697.83 633.82 703.34 658.06 C 709.89 686.27 718.31 714.00 724.83 742.21 C 729.14 764.99 729.30 788.39 734.67 811.00 L 382.79 811.00 C 381.84 797.66 381.51 784.26 382.67 770.92 C 384.56 746.04 389.03 721.33 388.85 696.30 C 375.99 691.67 362.53 688.88 348.96 687.40 C 322.73 684.48 296.24 685.44 269.99 682.69 C 263.20 673.80 261.76 662.47 258.61 652.07 C 257.22 647.41 256.33 642.63 254.93 637.98 C 252.22 628.76 248.45 619.75 247.47 610.11 C 247.03 607.60 247.33 604.59 245.21 602.77 C 238.64 595.99 230.13 591.66 222.03 587.03 C 218.80 585.25 217.22 581.77 215.00 579.02 C 207.10 568.96 195.50 562.08 189.30 550.64 C 186.79 545.87 181.60 543.67 177.63 540.37 C 177.37 537.00 177.36 533.58 176.44 530.32 C 175.81 527.83 173.23 526.82 171.16 525.81 C 161.40 521.44 151.89 516.53 142.40 511.60 C 137.00 508.75 130.86 507.63 125.58 504.53 C 122.70 502.79 120.00 500.22 119.23 496.84 C 119.85 492.70 121.85 488.94 123.10 484.98 C 126.34 475.47 130.16 465.97 136.60 458.12 C 134.99 454.69 133.47 451.23 131.99 447.74 C 137.11 447.02 142.05 445.48 147.01 444.09 C 149.12 443.27 151.25 444.18 153.24 444.89 C 165.88 449.89 177.35 457.27 189.34 463.56 C 199.12 468.90 209.63 472.88 219.01 478.97 C 224.30 482.39 230.31 484.44 235.96 487.16 C 269.15 502.46 301.13 520.19 333.00 538.04 C 344.45 544.34 357.18 548.56 367.70 556.43 C 371.28 563.82 369.73 573.81 363.54 579.46 C 357.80 585.04 353.11 591.60 349.26 598.62 C 356.54 599.72 363.74 601.28 370.78 603.44 C 372.60 592.48 374.47 581.48 377.98 570.92 C 380.57 562.85 385.02 555.54 387.58 547.46 C 397.49 518.06 395.28 486.59 399.13 456.20 C 400.90 438.74 400.98 420.72 407.37 404.11 C 409.43 398.75 411.89 393.23 416.49 389.57 C 423.24 384.07 431.84 381.72 439.16 377.13 C 449.21 370.90 461.63 367.89 469.38 358.42 C 478.76 347.23 479.12 331.49 487.93 319.95 C 485.41 313.90 483.69 307.51 483.02 300.98 C 482.46 296.78 482.65 292.32 480.64 288.47 C 473.49 274.41 467.65 259.51 457.94 246.93 C 452.92 246.34 446.96 247.87 442.85 244.16 C 431.15 234.68 425.28 220.10 421.62 205.90 C 420.04 200.14 422.12 194.38 424.41 189.15 C 416.20 174.21 408.72 157.42 411.06 139.97 C 412.46 132.34 414.02 124.24 418.95 118.01 C 423.47 112.37 430.71 110.40 436.45 106.40 C 440.95 103.29 441.38 97.36 443.92 92.91 C 452.28 76.83 468.15 66.07 484.63 59.53 C 500.00 55.45 516.33 58.56 530.88 64.29 C 548.76 69.75 564.78 81.13 575.71 96.32 C 577.89 99.46 578.81 103.24 579.76 106.89 C 583.17 120.29 583.96 134.23 583.36 148.01 C 581.82 164.55 588.41 180.49 588.28 196.97 C 587.62 200.15 585.11 202.46 583.22 204.96 C 583.51 215.34 582.02 225.64 580.98 235.95 C 580.92 238.01 580.33 240.38 581.75 242.14 C 587.70 250.43 595.62 257.02 603.55 263.33 C 615.80 273.01 626.67 284.27 637.81 295.17 C 642.25 299.46 646.45 304.22 652.00 307.13 C 662.04 312.57 673.55 313.93 684.45 316.80 C 680.93 304.79 681.31 292.10 678.18 280.01 C 676.31 273.97 683.01 268.94 680.69 263.07 C 670.02 227.81 669.94 189.58 679.42 154.04 C 681.76 145.18 689.95 140.15 695.75 133.76 C 696.52 127.21 695.64 120.58 695.88 113.99 C 695.74 88.16 696.41 62.13 701.67 36.75 Z" />
</svg>
