<?xml version="1.0" encoding="UTF-8" ?>
<!DOCTYPE svg PUBLIC "-//W3C//DTD SVG 1.1//EN" "http://www.w3.org/Graphics/SVG/1.1/DTD/svg11.dtd">
<svg width="1059pt" height="1059pt" viewBox="0 0 1059 1059" version="1.1" xmlns="http://www.w3.org/2000/svg">
<g id="#000000ff">
</g>
<g id="#ffffffff">
<path fill="#ffffff" opacity="1.00" d=" M 480.84 120.88 C 499.19 110.01 520.97 106.38 542.06 107.26 C 564.64 107.88 587.41 112.70 607.51 123.25 C 621.93 130.80 634.76 141.55 644.12 154.91 C 652.50 166.97 657.85 181.30 658.47 196.04 C 659.14 215.80 654.00 235.79 643.49 252.58 C 634.37 267.24 621.32 279.39 606.17 287.63 C 606.95 308.70 610.94 329.92 619.72 349.18 C 621.17 352.62 617.48 356.17 614.08 355.57 C 610.59 355.19 609.82 351.24 608.47 348.66 C 600.60 329.45 596.93 308.69 596.05 288.01 C 596.11 286.00 595.56 283.69 596.87 281.96 C 598.42 279.97 600.90 279.12 602.98 277.83 C 618.02 269.12 630.83 256.31 638.79 240.79 C 646.17 226.46 649.21 210.08 648.27 194.04 C 646.77 176.44 637.69 160.12 625.07 148.03 C 612.43 136.11 596.65 127.84 580.00 123.09 C 561.56 117.81 542.13 116.31 523.05 117.90 C 504.31 119.71 485.78 126.88 471.94 139.86 C 457.64 153.07 448.68 171.18 444.11 189.91 C 442.92 194.72 442.83 200.19 445.56 204.51 C 447.66 208.11 451.19 210.91 452.28 215.07 C 453.15 219.68 451.07 224.14 449.17 228.22 C 443.86 238.64 436.89 248.08 431.01 258.16 C 429.74 260.53 428.21 262.97 428.16 265.74 C 429.65 267.41 431.73 268.37 433.75 269.25 C 439.88 271.76 446.36 273.48 452.99 273.87 C 457.05 273.83 458.58 279.46 456.10 282.16 C 454.84 283.67 452.72 283.52 450.98 283.89 C 450.33 288.67 449.76 293.47 448.83 298.22 C 452.15 300.37 456.63 301.41 458.78 304.96 C 460.49 309.24 456.03 311.80 453.41 314.21 C 457.39 318.94 460.33 324.78 460.24 331.10 C 460.31 334.88 460.79 340.04 464.98 341.47 C 475.93 342.03 486.91 341.10 497.84 340.23 C 505.22 339.46 512.66 338.88 519.95 337.37 C 526.59 335.94 531.65 330.75 535.07 325.14 C 541.41 314.68 544.19 302.64 547.87 291.12 C 549.21 286.46 556.81 287.48 557.39 292.04 C 557.46 295.85 555.71 299.40 554.80 303.04 C 550.51 316.83 545.83 331.72 534.38 341.33 C 527.12 347.63 517.17 348.19 508.09 349.34 C 494.10 350.79 480.03 351.89 465.95 351.79 C 459.08 351.76 453.13 346.43 451.36 339.96 C 449.71 335.62 450.73 330.84 449.42 326.45 C 448.14 322.41 444.08 320.39 441.90 316.98 C 440.78 313.45 443.70 310.53 445.56 307.90 C 442.55 305.96 437.02 304.66 437.97 299.99 C 439.48 294.16 440.23 288.18 440.97 282.21 C 433.73 280.21 425.71 278.32 420.55 272.45 C 416.85 268.16 417.99 261.97 420.18 257.26 C 425.97 245.08 434.92 234.71 440.71 222.54 C 441.47 220.41 443.28 217.68 441.30 215.70 C 438.29 211.83 435.07 207.88 433.95 202.98 C 431.69 194.28 434.66 185.46 437.29 177.21 C 444.90 154.29 459.75 133.19 480.84 120.88 Z" />
<path fill="#ffffff" opacity="1.00" d=" M 192.72 129.91 C 308.16 250.34 423.48 370.90 538.87 491.37 C 655.76 375.84 772.65 260.32 889.51 144.77 C 892.68 147.92 895.80 151.12 898.95 154.30 C 782.00 269.88 665.08 385.47 548.14 501.05 C 660.34 618.21 772.49 735.42 884.74 852.54 C 881.56 855.69 878.30 858.75 875.08 861.85 C 762.93 744.72 650.76 627.61 538.63 510.46 C 421.48 626.22 304.36 742.01 187.23 857.79 C 184.19 854.54 180.79 851.63 177.98 848.18 C 295.01 732.30 412.23 616.61 529.34 500.80 C 413.94 380.23 298.50 259.71 183.08 139.16 C 186.30 136.08 189.52 133.01 192.72 129.91 Z" />
<path fill="#ffffff" opacity="1.00" d=" M 510.74 142.46 C 515.11 135.17 523.27 130.15 531.91 130.65 C 539.03 130.77 545.55 134.67 549.92 140.16 C 553.72 138.47 557.78 137.03 562.01 137.38 C 570.85 137.50 578.82 143.41 582.60 151.23 C 591.73 149.26 601.74 153.23 606.85 161.09 C 610.76 166.60 611.41 173.66 610.11 180.15 C 618.63 184.19 624.16 193.56 623.23 202.99 C 622.72 211.63 616.83 219.33 608.93 222.66 C 610.67 229.20 608.33 236.70 602.47 240.36 C 597.96 243.66 592.16 242.67 586.96 242.80 C 581.15 242.67 575.33 243.06 569.55 242.62 C 564.77 241.51 565.07 233.53 569.98 232.90 C 578.28 232.34 586.64 232.98 594.95 232.60 C 596.96 232.42 598.56 230.74 599.23 228.93 C 600.33 225.73 597.43 222.07 594.10 222.23 C 583.40 222.18 572.70 221.89 562.00 222.03 C 557.48 222.19 552.19 222.19 549.11 226.08 C 543.42 231.14 544.49 241.13 550.72 245.27 C 554.71 248.41 560.10 246.99 564.62 248.61 C 573.12 251.12 579.57 259.04 580.40 267.86 C 580.91 273.91 582.57 279.89 582.42 285.98 C 581.41 290.48 573.99 290.80 572.82 286.23 C 571.51 279.90 571.26 273.39 569.96 267.06 C 568.77 261.67 563.47 257.61 557.98 257.66 C 548.34 257.87 539.27 251.06 536.35 241.97 C 535.00 238.01 535.28 233.75 535.82 229.67 C 529.50 230.19 522.74 229.44 517.62 225.36 C 513.99 222.82 511.67 218.94 509.83 215.01 C 502.17 214.83 494.48 215.31 486.84 214.68 C 472.26 212.20 463.46 194.54 469.04 181.13 C 471.22 175.39 476.14 171.17 481.69 168.82 C 480.40 159.28 485.08 149.24 493.71 144.76 C 498.83 141.63 504.99 141.71 510.74 142.46 M 524.61 142.66 C 520.42 145.20 518.93 150.04 517.26 154.31 C 515.21 157.22 512.09 154.03 509.76 153.19 C 502.33 149.53 492.87 155.08 491.74 163.10 C 490.72 167.33 493.74 170.97 494.17 175.01 C 493.03 177.34 490.14 177.01 488.02 177.60 C 483.20 178.49 478.98 182.29 477.82 187.08 C 475.71 195.23 482.34 204.83 490.96 204.86 C 496.92 204.93 502.89 205.00 508.85 204.99 C 510.43 195.17 518.78 186.64 528.93 186.16 C 541.66 185.97 554.39 186.11 567.12 186.05 C 569.72 183.58 570.64 180.12 571.87 176.89 C 573.79 173.30 579.59 174.20 580.75 177.96 C 582.01 182.37 579.29 186.47 577.13 190.08 C 579.59 192.90 582.88 195.87 582.52 199.98 C 582.52 202.31 580.28 204.16 578.06 204.27 C 572.52 204.73 572.38 196.54 567.13 196.10 C 555.42 195.93 543.70 196.06 532.00 196.03 C 527.84 195.90 523.49 197.56 521.11 201.09 C 517.43 205.83 518.49 213.20 523.25 216.80 C 528.11 220.86 534.85 219.36 540.65 219.49 C 544.49 216.51 548.43 213.19 553.51 212.68 C 566.97 211.00 580.55 212.41 594.06 212.10 C 597.93 211.63 601.51 215.20 605.25 213.15 C 612.15 210.59 615.12 201.67 611.80 195.27 C 609.86 191.11 605.50 188.70 601.07 188.19 C 599.32 187.72 596.07 187.64 596.63 184.99 C 597.70 181.27 600.94 178.20 600.64 174.05 C 601.05 165.23 590.93 157.99 582.78 161.87 C 580.32 162.75 577.10 165.92 574.94 162.96 C 573.88 159.95 574.24 156.46 572.32 153.75 C 569.12 148.23 561.68 145.93 555.90 148.57 C 552.70 149.98 550.86 153.16 548.00 155.02 C 544.47 155.61 544.18 151.41 543.11 149.12 C 540.72 141.87 530.97 138.23 524.61 142.66 Z" />
<path fill="#ffffff" opacity="1.00" d=" M 528.74 163.69 C 529.83 161.92 529.93 159.14 532.06 158.26 C 535.29 157.65 536.92 161.30 539.48 162.59 C 544.02 165.61 549.63 163.96 554.12 161.74 C 558.62 160.05 562.65 166.75 558.85 169.89 C 552.62 175.57 543.01 174.97 535.62 172.08 C 530.03 179.36 520.40 182.49 511.49 180.79 C 509.29 184.64 507.25 189.19 502.97 191.11 C 499.31 192.54 495.39 188.65 496.57 184.98 C 498.06 181.81 501.57 179.82 502.15 176.15 C 503.14 173.24 502.03 169.58 504.23 167.17 C 506.82 166.43 508.88 168.58 511.08 169.54 C 517.23 172.95 525.99 170.27 528.74 163.69 Z" />
<path fill="#ffffff" opacity="1.00" d=" M 302.43 389.50 C 322.90 388.64 343.47 389.30 363.98 389.10 C 367.39 388.58 370.71 391.48 370.41 394.98 C 370.44 464.64 370.44 534.31 370.41 603.98 C 370.82 607.15 368.27 610.31 365.00 610.24 C 345.00 610.34 324.98 610.28 304.97 610.27 C 301.56 610.57 298.66 607.34 299.07 604.00 C 299.05 534.65 299.08 465.30 299.06 395.94 C 298.81 393.38 299.88 390.48 302.43 389.50 M 305.42 403.56 C 305.65 404.15 306.11 405.35 306.34 405.95 C 325.39 406.30 344.45 406.19 363.50 406.05 C 363.49 405.34 363.47 403.92 363.46 403.21 C 347.97 403.15 332.49 403.17 317.01 403.16 C 313.14 403.17 309.26 402.99 305.42 403.56 M 305.64 414.64 C 323.42 415.12 341.21 414.73 359.00 414.90 C 361.02 414.88 365.32 415.18 363.25 412.00 C 344.83 411.75 326.40 411.87 307.98 411.94 C 306.06 411.55 305.78 413.18 305.64 414.64 M 308.35 451.47 C 304.62 451.56 305.25 457.98 308.98 457.27 C 325.66 457.43 342.35 457.33 359.03 457.37 C 360.43 457.25 362.28 457.46 363.16 456.09 C 364.57 454.37 363.14 451.32 360.88 451.46 C 343.38 451.37 325.85 451.31 308.35 451.47 M 307.19 462.32 C 304.58 463.75 305.89 468.26 308.93 467.78 C 325.64 467.87 342.36 467.82 359.08 467.86 C 360.71 467.84 362.94 467.83 363.58 465.95 C 364.40 463.76 362.29 461.51 360.08 461.94 C 344.07 461.86 328.06 461.89 312.05 461.97 C 310.43 462.03 308.76 461.87 307.19 462.32 M 307.80 472.50 C 306.89 473.26 305.99 474.03 305.09 474.81 C 306.14 476.25 306.78 478.70 309.07 478.33 C 325.68 478.47 342.31 478.34 358.93 478.40 C 360.37 478.27 362.33 478.62 363.21 477.13 C 364.48 475.36 363.20 472.35 360.88 472.54 C 343.20 472.32 325.50 472.48 307.80 472.50 M 307.27 483.31 C 304.67 484.66 305.85 489.43 308.95 488.86 C 326.29 488.93 343.65 489.00 360.99 488.84 C 363.21 488.96 364.56 485.85 363.17 484.21 C 361.96 482.61 359.71 483.13 357.99 482.98 C 341.08 483.20 324.15 482.67 307.27 483.31 M 332.13 558.26 C 327.86 560.02 326.86 566.61 330.68 569.38 C 334.33 572.53 340.89 569.88 341.21 565.02 C 342.07 560.31 336.41 556.08 332.13 558.26 M 333.19 582.14 C 331.02 583.19 330.97 586.77 333.14 587.86 C 334.81 589.00 337.38 587.88 337.86 585.98 C 338.87 583.36 335.54 580.72 333.19 582.14 Z" />
<path fill="#ffffff" opacity="1.00" d=" M 88.96 433.03 C 88.73 427.66 93.64 422.94 98.97 423.21 C 157.68 423.21 216.39 423.17 275.09 423.20 C 278.15 423.14 281.32 424.33 283.21 426.81 C 285.49 429.27 285.26 432.89 285.44 436.02 C 285.44 472.35 285.41 508.68 285.42 545.01 C 285.39 548.63 285.61 552.30 284.89 555.88 C 283.65 559.83 279.88 562.81 275.65 562.53 C 250.72 562.68 225.79 562.51 200.87 562.57 C 201.74 570.23 203.02 577.83 203.72 585.51 C 209.86 585.56 216.00 585.57 222.14 585.56 C 222.85 586.57 223.57 587.59 224.27 588.63 C 223.91 589.21 223.18 590.36 222.82 590.94 C 209.20 591.46 195.58 591.10 181.96 591.19 C 171.63 591.12 161.28 591.50 150.97 590.85 C 149.98 588.97 150.36 587.09 152.00 585.76 C 158.16 585.30 164.37 585.66 170.55 585.53 C 171.26 577.84 172.57 570.24 173.44 562.57 C 148.95 562.57 124.45 562.57 99.96 562.58 C 97.33 562.63 94.55 562.21 92.49 560.46 C 89.80 558.56 89.07 555.03 88.93 551.95 C 88.99 512.31 88.92 472.67 88.96 433.03 M 94.84 432.91 C 94.56 468.37 94.74 503.84 94.78 539.30 C 102.26 539.35 109.75 539.19 117.24 539.39 C 114.54 536.93 114.70 532.83 116.95 530.14 C 115.46 528.03 114.48 525.23 115.79 522.79 C 116.37 521.12 118.99 520.36 120.01 522.01 C 121.89 524.48 121.13 527.95 119.21 530.16 C 121.66 532.75 121.58 536.72 119.27 539.38 C 124.68 539.27 130.10 539.20 135.50 539.43 C 133.19 537.05 133.04 533.48 134.75 530.72 C 134.68 530.25 134.55 529.32 134.49 528.85 L 135.59 529.41 C 135.61 527.18 135.61 524.96 135.62 522.75 C 135.13 522.65 134.14 522.47 133.65 522.38 C 134.56 522.07 136.36 521.44 137.27 521.12 C 132.80 520.54 132.97 515.21 134.79 512.29 C 135.64 512.28 137.34 512.26 138.19 512.25 C 139.60 514.75 140.29 518.51 137.60 520.46 C 137.94 523.53 136.11 527.55 138.94 529.81 C 138.48 529.81 137.56 529.81 137.10 529.81 C 140.05 532.19 139.97 536.35 137.95 539.30 C 140.18 539.28 142.42 539.30 144.65 539.41 C 142.22 536.82 142.07 532.67 144.71 530.17 C 142.17 527.64 142.13 523.51 144.67 520.97 C 142.24 518.46 142.24 514.66 144.19 511.84 C 145.53 514.70 144.54 517.96 144.93 521.00 C 147.86 518.81 146.14 514.68 146.69 511.60 C 149.17 514.09 149.35 518.38 146.72 520.81 C 149.15 523.43 149.23 527.50 146.81 530.16 C 149.11 532.56 148.92 536.04 147.46 538.84 C 147.12 538.82 146.43 538.78 146.09 538.76 C 146.49 536.32 147.34 533.06 145.90 530.99 C 145.63 531.12 145.09 531.36 144.82 531.48 C 144.71 534.23 144.49 537.14 145.92 539.62 C 152.26 540.26 158.63 539.75 164.98 539.77 C 173.51 539.89 182.06 540.15 190.58 539.54 C 188.34 537.00 187.58 531.99 191.11 530.21 C 195.59 530.44 195.32 537.04 192.58 539.40 C 194.59 539.31 196.60 539.30 198.62 539.33 L 198.41 538.23 L 199.91 538.27 C 199.92 536.12 199.91 533.98 199.91 531.84 C 199.36 531.77 198.26 531.63 197.71 531.56 C 199.08 531.10 200.46 530.68 201.84 530.23 C 201.78 532.76 201.76 535.31 201.80 537.86 C 202.28 538.22 203.24 538.96 203.71 539.32 C 205.41 539.31 207.10 539.32 208.80 539.35 C 206.60 536.71 206.83 533.25 208.12 530.25 C 209.93 532.77 208.79 536.05 209.37 538.92 C 212.49 537.17 209.51 532.69 211.89 530.24 C 213.12 533.24 213.41 536.73 211.18 539.36 C 213.42 539.30 215.65 539.29 217.89 539.33 C 215.96 536.65 215.13 531.92 218.82 530.27 C 218.11 530.07 216.70 529.68 216.00 529.48 C 216.58 529.43 217.73 529.33 218.31 529.28 C 218.28 526.81 218.54 524.24 217.43 521.96 C 218.34 521.63 219.26 521.31 220.17 521.00 C 220.16 523.75 220.13 526.50 220.21 529.26 C 220.71 529.32 221.70 529.45 222.20 529.51 C 221.68 529.68 220.66 530.04 220.15 530.22 C 222.85 532.65 222.58 536.77 220.29 539.39 C 225.70 539.25 231.12 539.22 236.54 539.42 C 234.04 536.85 233.92 532.62 236.64 530.18 C 233.97 527.70 233.95 523.39 236.63 520.93 C 234.11 518.65 234.20 515.05 235.81 512.30 C 236.66 512.28 238.36 512.25 239.21 512.23 C 240.93 514.93 241.05 518.70 238.44 520.91 C 241.12 523.29 241.14 527.57 238.62 530.08 C 241.10 532.74 241.07 536.92 238.50 539.52 C 240.99 539.35 243.53 539.29 245.83 538.19 C 245.84 536.08 245.84 533.97 245.83 531.87 C 245.30 531.78 244.24 531.61 243.71 531.52 C 245.06 531.08 246.42 530.66 247.77 530.23 C 247.67 533.29 247.40 536.45 248.60 539.37 C 256.74 539.23 264.87 539.31 273.00 539.32 C 270.81 536.40 270.77 532.15 273.61 529.64 L 271.90 529.96 C 274.29 528.06 273.90 524.20 272.27 521.94 C 273.28 521.66 274.30 521.37 275.32 521.10 C 275.27 523.73 275.25 526.36 275.32 529.00 L 277.45 529.01 L 275.44 529.76 C 277.83 532.46 277.81 536.77 275.34 539.44 C 276.39 539.39 278.48 539.29 279.52 539.24 C 279.53 503.87 279.61 468.49 279.51 433.13 C 279.61 431.25 278.23 428.05 275.96 429.11 C 275.02 431.78 274.29 435.81 276.75 437.90 L 275.02 437.93 C 277.82 440.51 278.23 445.60 274.60 447.65 C 278.64 449.31 277.74 455.42 274.25 457.22 C 277.37 456.86 277.52 460.98 276.99 463.12 C 276.81 465.36 273.61 466.69 272.31 464.60 C 270.36 461.88 271.55 458.28 273.79 456.14 C 270.33 455.05 270.57 449.15 273.71 447.75 C 270.60 445.23 270.50 440.12 274.01 437.88 L 272.15 438.08 C 273.87 436.00 274.31 432.15 272.14 430.26 C 272.59 430.00 273.50 429.48 273.96 429.21 C 268.31 428.28 262.47 429.12 256.75 428.76 C 256.92 431.51 256.89 434.27 256.93 437.03 C 257.46 437.14 258.51 437.37 259.03 437.49 C 258.33 437.63 256.91 437.92 256.21 438.07 C 259.70 439.96 259.66 445.14 256.73 447.50 C 259.45 449.56 259.54 453.81 257.26 456.23 C 258.81 459.19 260.30 464.79 255.77 465.77 C 251.88 464.59 252.25 458.44 255.41 456.44 C 251.96 454.74 252.32 449.47 255.28 447.45 C 252.46 445.57 252.03 440.82 254.83 438.77 L 255.32 438.20 C 254.70 437.98 253.46 437.54 252.83 437.32 C 253.39 437.28 254.49 437.21 255.04 437.17 C 255.04 435.03 255.03 432.90 255.01 430.78 C 254.49 430.76 253.44 430.71 252.91 430.69 C 253.84 430.26 255.69 429.39 256.62 428.96 C 247.46 428.63 238.29 428.94 229.12 428.76 C 232.04 431.44 232.16 436.59 228.52 438.73 C 229.27 435.74 229.36 432.67 229.17 429.61 L 227.57 429.54 C 227.46 432.58 227.55 435.62 227.59 438.67 C 224.73 435.98 224.76 431.38 227.63 428.75 C 225.39 428.97 222.98 428.38 220.85 429.08 C 220.06 431.78 218.86 436.37 222.01 437.95 C 221.24 437.92 219.69 437.87 218.92 437.84 C 222.89 439.42 223.22 445.29 219.73 447.54 C 223.01 449.34 222.31 453.60 220.97 456.42 C 218.51 454.04 221.49 449.81 218.87 447.30 C 218.04 450.20 218.89 453.50 217.11 456.13 C 215.86 453.07 215.80 449.29 218.65 447.12 C 214.96 445.45 215.84 439.96 218.62 437.78 L 216.01 437.63 C 216.58 437.44 217.71 437.06 218.28 436.87 C 218.29 434.84 218.27 432.82 218.26 430.80 C 217.76 430.79 216.74 430.77 216.24 430.76 C 216.64 430.36 217.46 429.57 217.86 429.18 C 212.53 428.30 207.04 429.06 201.65 428.78 C 201.80 431.49 201.78 434.22 201.82 436.95 C 202.37 437.16 203.46 437.58 204.00 437.79 C 201.99 437.85 199.99 437.89 197.99 438.02 C 198.43 437.69 199.32 437.04 199.76 436.71 C 199.88 434.39 200.97 430.83 197.89 430.05 C 198.60 430.07 200.00 430.09 200.71 430.10 L 200.59 428.81 C 197.79 428.80 194.98 428.80 192.18 428.76 C 195.76 431.44 195.22 437.47 190.96 439.13 C 190.90 441.33 190.25 443.69 191.17 445.80 C 191.48 445.88 192.10 446.04 192.41 446.13 C 193.07 444.08 191.53 441.35 192.92 439.61 C 195.99 441.05 194.46 445.86 192.28 447.67 C 195.49 449.55 195.18 454.51 192.37 456.63 C 194.92 458.57 195.80 463.78 192.37 465.24 C 194.83 467.93 195.60 472.48 192.46 475.00 C 195.14 477.19 195.02 481.06 193.22 483.76 C 192.38 483.74 190.69 483.69 189.85 483.66 C 188.30 480.86 188.22 477.35 190.67 475.02 C 188.03 472.51 188.07 468.28 190.69 465.77 C 188.03 463.35 187.80 458.47 191.23 456.60 C 187.54 454.68 188.38 449.87 190.66 447.19 C 187.85 445.01 188.14 440.60 190.73 438.37 C 187.87 435.75 188.17 431.31 190.89 428.72 C 187.92 428.69 184.98 428.98 182.04 429.26 C 176.32 428.37 170.53 429.00 164.78 428.76 C 167.59 431.32 167.72 435.83 164.93 438.44 C 165.58 441.19 163.46 445.62 166.94 446.80 C 166.29 446.81 164.98 446.84 164.33 446.86 C 165.01 447.58 165.71 448.29 166.42 449.00 C 167.54 451.73 167.19 456.84 163.30 456.68 C 160.56 454.82 160.63 450.70 162.43 448.14 C 163.12 447.26 161.83 446.77 161.35 446.26 C 161.81 446.26 162.73 446.25 163.19 446.24 C 162.60 444.00 164.64 439.69 161.12 439.39 C 162.32 439.18 163.52 438.93 164.72 438.70 C 160.11 437.45 160.26 431.38 163.41 428.71 C 160.85 428.81 158.29 428.82 155.73 428.79 C 156.47 431.76 154.29 436.32 157.77 437.89 C 155.76 437.85 153.75 437.87 151.75 437.85 C 152.31 437.62 153.42 437.14 153.97 436.91 C 153.98 434.87 153.97 432.84 153.97 430.82 C 153.46 430.82 152.43 430.84 151.92 430.84 C 153.11 430.24 154.30 429.62 155.48 429.00 C 149.47 428.58 143.45 428.96 137.44 428.76 C 138.10 431.54 136.02 435.73 138.89 437.49 C 138.63 437.66 138.13 438.01 137.87 438.19 C 137.47 441.09 136.49 444.80 138.84 447.14 C 137.21 447.15 135.59 447.16 133.96 447.23 C 136.29 445.56 136.69 440.78 134.05 439.34 C 134.52 439.07 135.46 438.54 135.93 438.27 C 135.54 438.14 134.75 437.88 134.36 437.75 C 136.28 435.96 136.57 431.52 134.01 430.22 C 134.85 429.93 136.55 429.36 137.40 429.07 C 134.61 429.00 131.52 428.25 128.86 429.11 C 128.24 431.82 127.27 435.56 129.61 437.71 C 126.60 437.72 129.81 439.78 130.00 441.02 C 130.58 443.12 130.37 447.46 127.17 446.70 C 130.70 448.64 131.66 454.54 127.73 456.58 C 131.27 458.51 130.64 463.18 128.45 465.87 C 128.48 469.00 127.16 472.90 129.98 475.20 L 128.27 474.49 C 128.35 477.20 128.12 479.93 128.42 482.64 L 129.89 483.47 C 129.63 483.64 129.10 483.98 128.84 484.16 C 128.27 486.98 127.08 491.25 130.02 493.13 C 128.37 493.15 126.72 493.18 125.08 493.20 C 126.95 491.13 127.26 487.34 125.20 485.32 C 125.62 485.05 126.46 484.52 126.88 484.25 C 126.43 484.10 125.52 483.81 125.07 483.66 C 125.44 483.35 126.19 482.72 126.56 482.41 C 126.38 480.17 126.79 477.70 125.21 475.86 L 126.71 476.19 L 126.90 474.50 L 124.92 475.22 C 127.15 473.22 126.35 470.21 126.32 467.59 C 128.64 464.44 128.46 460.48 127.86 456.81 C 125.74 458.73 126.12 462.01 127.07 464.42 C 126.24 464.31 125.40 464.22 124.57 464.13 C 124.11 461.24 124.46 458.29 126.73 456.22 C 123.38 454.86 123.64 449.29 126.70 447.73 C 124.27 445.69 124.11 442.57 124.77 439.69 C 125.47 439.09 126.17 438.50 126.87 437.91 L 124.75 437.87 C 127.35 436.61 127.10 432.22 125.25 430.41 C 126.09 430.29 126.63 429.88 126.86 429.20 C 124.36 428.45 121.69 428.90 119.12 428.78 C 119.63 431.84 117.65 435.97 120.79 437.99 C 118.92 437.88 117.05 437.84 115.19 437.85 C 115.67 437.57 116.63 437.00 117.11 436.71 C 117.01 434.61 118.51 430.68 115.30 430.58 C 116.49 430.11 117.67 429.60 118.82 429.04 C 115.54 428.48 112.26 428.97 108.99 429.22 C 106.20 429.01 103.42 428.70 100.62 428.69 C 101.15 431.76 99.64 435.52 102.05 438.03 C 100.39 437.93 98.73 437.89 97.07 437.93 C 98.38 437.34 98.99 436.38 98.91 435.06 C 98.78 433.28 99.64 430.57 97.00 430.49 C 97.89 430.08 99.68 429.28 100.57 428.87 C 97.69 428.28 94.45 429.53 94.84 432.91 M 163.84 428.62 C 163.37 431.62 161.96 435.63 164.62 437.99 C 164.88 434.89 165.65 431.42 163.84 428.62 M 190.94 428.91 C 191.11 431.96 189.67 435.66 192.04 438.18 C 192.34 435.14 193.61 431.25 190.94 428.91 M 127.46 445.98 C 128.06 443.79 128.10 441.08 127.35 438.95 C 126.40 440.86 125.94 444.56 127.46 445.98 M 274.47 446.08 C 275.01 443.88 275.00 441.34 274.48 439.16 C 273.17 440.43 273.05 444.91 274.47 446.08 M 219.35 445.99 C 219.96 444.03 219.90 441.72 219.39 439.75 C 218.11 440.78 218.09 444.91 219.35 445.99 M 254.92 440.14 C 255.55 441.95 253.78 445.22 255.99 446.24 C 257.30 444.97 257.60 440.72 255.99 439.70 C 255.73 439.81 255.19 440.03 254.92 440.14 M 126.86 449.42 C 126.68 451.30 125.95 454.48 127.57 455.69 C 128.12 453.69 127.68 451.51 127.88 449.45 C 127.63 449.44 127.11 449.43 126.86 449.42 M 164.00 455.24 C 164.28 455.11 164.83 454.84 165.11 454.71 C 164.57 452.52 166.17 449.02 163.69 447.82 C 163.37 450.02 161.66 453.89 164.00 455.24 M 191.47 448.83 C 190.97 450.99 190.94 453.49 191.44 455.66 C 192.85 454.50 192.87 449.92 191.47 448.83 M 254.93 454.85 C 255.20 454.95 255.73 455.16 256.00 455.26 C 258.15 454.05 256.29 450.56 256.52 448.54 L 255.83 448.67 C 253.98 450.08 255.43 452.91 254.93 454.85 M 273.87 454.55 C 274.11 454.55 274.60 454.55 274.84 454.55 C 274.68 452.65 275.01 450.66 274.46 448.83 C 272.98 449.74 273.74 452.86 273.87 454.55 M 191.49 457.96 C 190.96 460.13 190.96 462.66 191.43 464.85 C 192.83 463.64 192.87 459.11 191.49 457.96 M 255.20 457.46 C 254.91 460.18 254.99 462.93 255.40 465.64 C 257.06 464.61 256.86 462.68 256.84 460.99 C 256.61 459.61 257.47 457.06 255.20 457.46 M 273.60 462.06 C 273.39 462.59 273.92 465.97 274.75 464.23 C 274.71 462.21 275.17 460.02 274.48 458.11 C 273.00 458.38 273.85 460.96 273.60 462.06 M 191.48 467.12 C 190.93 469.23 190.95 471.74 191.46 473.87 C 192.86 472.78 192.88 468.22 191.48 467.12 M 191.47 476.11 C 190.94 478.20 190.93 480.70 191.46 482.80 C 192.93 481.77 192.83 477.22 191.47 476.11 M 136.34 513.30 C 135.75 515.07 135.21 518.55 136.70 519.70 C 137.21 517.89 137.84 514.47 136.34 513.30 M 237.00 513.82 C 236.86 515.81 236.99 517.94 237.47 519.87 C 238.77 519.39 237.99 517.00 238.26 515.88 C 238.52 515.21 237.93 512.01 237.00 513.82 M 117.46 522.49 C 117.56 524.53 116.17 527.77 118.00 529.14 C 118.26 529.01 118.79 528.76 119.05 528.64 C 119.09 526.20 119.00 523.77 118.76 521.36 C 118.43 521.65 117.79 522.21 117.46 522.49 M 144.85 528.55 C 145.10 528.64 145.59 528.82 145.84 528.91 C 147.39 526.56 146.32 523.46 146.19 520.85 C 144.04 522.84 144.95 525.98 144.85 528.55 M 237.30 522.29 C 236.50 524.26 237.13 526.69 237.41 528.73 C 238.76 527.78 238.87 523.09 237.30 522.29 M 118.15 530.77 C 116.88 532.57 116.28 537.33 118.74 538.97 C 118.47 536.42 120.18 532.66 118.15 530.77 M 136.12 531.00 C 135.23 533.53 135.55 536.27 135.92 538.88 C 137.94 538.66 137.27 536.44 137.45 535.04 C 137.48 534.11 137.33 528.46 136.12 531.00 M 191.05 530.26 C 190.75 533.36 190.07 536.80 191.95 539.56 C 192.32 536.55 193.75 532.58 191.05 530.26 M 219.38 537.90 C 220.00 535.85 220.02 533.31 219.38 531.28 C 218.05 532.46 218.00 536.80 219.38 537.90 M 237.91 539.04 C 238.90 536.01 238.39 532.78 238.12 529.70 C 236.23 532.15 235.66 536.74 237.91 539.04 M 274.80 529.87 C 272.37 532.54 273.40 536.45 274.04 539.61 C 275.84 536.65 275.16 533.10 274.80 529.87 M 94.70 542.20 C 94.70 546.33 94.74 550.47 94.88 554.61 C 95.29 555.13 96.12 556.18 96.53 556.70 C 98.34 556.86 100.16 557.00 101.99 557.02 C 156.65 557.00 211.30 557.01 265.96 557.01 C 269.98 556.99 274.02 557.21 278.02 556.60 C 278.38 556.08 279.10 555.03 279.46 554.51 C 279.57 550.41 279.55 546.30 279.54 542.21 C 217.93 542.19 156.31 542.21 94.70 542.20 M 176.24 562.57 C 175.39 570.25 174.15 577.87 173.34 585.55 C 182.56 585.56 191.78 585.54 201.00 585.56 C 200.18 577.88 198.92 570.25 198.07 562.57 C 190.79 562.57 183.51 562.57 176.24 562.57 Z" />
<path fill="#ffffff" opacity="1.00" d=" M 106.84 430.09 C 107.09 430.12 107.59 430.17 107.84 430.19 C 108.26 432.61 108.02 435.10 108.26 437.55 C 111.20 436.32 109.04 432.53 110.15 430.20 C 112.27 429.84 111.79 433.75 111.75 435.14 C 111.65 437.76 109.19 437.96 107.11 437.82 C 106.02 435.36 105.56 432.58 106.84 430.09 Z" />
<path fill="#ffffff" opacity="1.00" d=" M 183.23 430.22 C 184.81 429.08 184.89 431.58 185.29 432.59 C 185.56 434.39 185.21 436.52 183.82 437.80 C 183.08 437.82 181.61 437.86 180.87 437.88 C 179.65 435.86 179.13 433.50 179.75 431.19 C 180.04 431.14 180.64 431.04 180.94 431.00 C 181.94 432.82 181.42 434.96 181.67 436.95 C 181.96 436.91 182.54 436.84 182.83 436.80 C 183.80 434.73 183.00 432.40 183.23 430.22 Z" />
<path fill="#ffffff" opacity="1.00" d=" M 879.78 437.13 C 901.19 437.17 922.60 437.10 944.01 437.17 C 957.05 437.46 970.78 440.31 980.99 448.90 C 993.54 459.22 994.41 480.47 982.90 491.88 C 976.56 498.02 967.79 500.54 959.39 502.36 C 967.45 515.23 975.77 527.98 985.20 539.90 C 989.70 545.41 994.11 551.61 1000.91 554.44 C 1002.51 555.22 1004.47 555.94 1004.80 557.97 C 1003.97 558.93 1003.15 559.89 1002.36 560.87 C 991.28 560.86 980.20 560.86 969.13 560.87 C 964.75 555.69 961.62 549.64 957.91 544.00 C 949.30 530.76 940.69 517.51 932.08 504.27 C 929.89 504.27 927.72 504.29 925.55 504.31 C 925.57 518.22 925.55 532.12 925.60 546.03 C 925.72 548.69 925.62 552.21 928.35 553.66 C 932.24 555.34 936.67 554.15 940.65 555.49 C 941.97 556.63 941.46 558.58 941.81 560.11 C 939.89 560.60 937.93 560.94 935.96 560.88 C 917.98 560.84 900.00 560.87 882.02 560.86 C 881.27 559.93 880.44 559.03 879.77 558.06 C 879.19 556.48 880.78 555.65 881.98 555.27 C 885.89 553.99 890.55 555.63 894.06 553.04 C 896.16 550.97 895.82 547.71 896.01 545.02 C 895.99 513.99 896.06 482.96 895.98 451.93 C 895.84 449.27 895.84 445.59 892.93 444.38 C 888.73 442.76 883.91 444.24 879.85 441.98 C 879.81 440.36 879.79 438.74 879.78 437.13 M 901.01 443.33 C 901.77 446.84 902.30 450.42 902.26 454.02 C 902.25 480.68 902.26 507.35 902.26 534.01 C 902.18 540.95 902.71 548.00 901.02 554.81 C 907.53 554.76 914.05 554.80 920.57 554.79 C 918.87 548.33 919.40 541.63 919.33 535.04 C 919.32 507.36 919.34 479.69 919.32 452.02 C 919.16 449.00 920.19 446.13 921.26 443.36 C 914.51 443.35 907.76 443.42 901.01 443.33 M 925.62 452.02 C 925.51 467.28 925.57 482.55 925.57 497.81 C 934.63 497.41 944.41 498.31 952.64 493.77 C 959.18 489.57 959.66 480.99 959.94 474.00 C 959.97 465.28 959.89 455.25 953.44 448.55 C 947.77 443.30 939.23 442.70 931.94 443.93 C 928.03 444.32 925.29 448.22 925.62 452.02 M 959.48 445.24 C 963.61 451.35 965.70 458.65 966.06 465.98 C 966.49 475.93 966.31 486.62 960.77 495.30 C 968.38 493.61 976.70 490.99 981.22 484.15 C 986.66 475.17 985.85 462.29 978.15 454.82 C 973.12 449.71 966.20 447.23 959.48 445.24 M 939.47 504.13 C 950.31 521.06 961.26 537.91 972.19 554.78 C 978.05 554.77 983.91 554.78 989.78 554.78 C 975.20 539.23 963.84 521.09 952.36 503.24 C 948.06 503.50 943.75 503.71 939.47 504.13 Z" />
<path fill="#ffffff" opacity="1.00" d=" M 142.69 439.76 C 144.03 439.27 145.38 438.79 146.72 438.30 C 146.69 440.68 146.66 443.05 146.60 445.43 C 146.94 445.85 147.63 446.68 147.98 447.10 C 146.38 447.12 144.78 447.14 143.18 447.21 C 145.73 445.62 144.59 442.42 144.79 439.96 L 142.69 439.76 Z" />
<path fill="#ffffff" opacity="1.00" d=" M 171.07 439.16 C 172.14 438.92 173.21 438.67 174.28 438.42 C 174.70 441.23 172.79 445.39 175.93 447.00 C 175.21 446.97 173.75 446.91 173.03 446.88 C 176.86 448.58 177.15 453.92 174.25 456.56 C 174.70 459.54 172.86 463.60 175.80 465.62 C 174.13 465.54 172.45 465.52 170.78 465.54 C 171.20 465.20 172.03 464.53 172.45 464.19 C 172.41 461.93 172.47 459.62 171.46 457.55 L 172.92 457.22 C 169.77 454.75 169.20 449.53 172.84 447.21 C 172.48 447.10 171.77 446.90 171.41 446.79 C 172.72 444.56 173.16 441.06 171.07 439.16 M 172.99 457.12 C 174.59 454.16 174.76 450.22 172.98 447.31 C 172.09 450.50 172.15 453.91 172.99 457.12 Z" />
<path fill="#ffffff" opacity="1.00" d=" M 207.12 439.46 C 208.43 439.15 209.72 438.78 211.01 438.40 C 210.98 440.94 210.95 443.49 210.96 446.04 C 211.47 446.18 212.49 446.47 212.99 446.62 L 210.23 446.97 C 210.93 447.52 211.64 448.07 212.35 448.62 C 212.75 450.82 213.78 455.10 211.17 455.80 C 210.46 452.86 211.44 449.66 209.90 446.88 C 208.63 449.74 209.55 452.89 208.85 455.83 C 206.19 454.66 206.69 450.16 208.49 448.19 C 208.71 447.81 209.14 447.05 209.36 446.67 L 206.92 446.64 C 207.48 446.43 208.59 446.01 209.15 445.80 C 208.72 443.61 210.34 439.81 207.12 439.46 Z" />
<path fill="#ffffff" opacity="1.00" d=" M 234.77 439.55 C 236.04 439.15 237.31 438.77 238.58 438.37 C 238.79 441.28 237.61 444.69 239.72 447.13 C 238.17 447.12 236.63 447.15 235.09 447.19 C 237.53 445.68 236.43 442.63 236.72 440.29 C 236.23 440.11 235.26 439.73 234.77 439.55 Z" />
<path fill="#ffffff" opacity="1.00" d=" M 243.73 439.64 C 245.08 439.21 246.43 438.79 247.78 438.36 C 247.72 440.69 247.69 443.02 247.65 445.35 C 247.98 445.84 248.64 446.80 248.97 447.28 C 247.75 447.26 246.55 447.11 245.38 446.85 C 245.84 444.57 245.88 442.27 245.88 439.97 C 245.34 439.89 244.27 439.72 243.73 439.64 Z" />
<path fill="#ffffff" opacity="1.00" d=" M 99.99 457.06 C 95.59 455.66 95.67 447.42 100.61 447.40 C 103.41 449.60 103.39 454.24 100.74 456.57 C 100.72 459.51 100.56 462.49 101.17 465.39 C 100.13 465.11 99.32 464.54 98.72 463.69 C 98.78 461.94 98.86 460.19 98.91 458.45 C 98.41 458.32 97.41 458.06 96.91 457.93 C 97.68 457.71 99.22 457.28 99.99 457.06 M 98.83 449.57 C 98.99 451.99 98.26 454.88 100.19 456.82 C 100.17 454.25 101.72 450.83 99.97 448.67 C 99.69 448.89 99.12 449.34 98.83 449.57 Z" />
<path fill="#ffffff" opacity="1.00" d=" M 108.88 457.04 C 104.85 455.30 104.92 447.62 109.68 447.34 C 112.61 449.42 112.58 454.23 109.92 456.61 C 109.91 459.62 109.70 462.68 110.50 465.63 C 109.75 465.63 108.25 465.63 107.50 465.63 C 108.10 463.22 108.09 460.75 108.08 458.30 C 107.56 458.24 106.52 458.13 106.00 458.08 C 106.96 457.73 107.92 457.38 108.88 457.04 M 107.95 449.37 C 108.01 451.96 107.75 454.72 109.12 457.08 C 109.32 454.60 111.18 450.59 109.00 448.79 C 108.74 448.93 108.21 449.23 107.95 449.37 Z" />
<path fill="#ffffff" opacity="1.00" d=" M 116.34 448.41 C 117.01 446.41 119.45 447.54 120.22 448.80 C 121.76 451.29 121.27 454.83 118.88 456.62 C 119.07 459.61 119.02 462.62 119.53 465.58 C 118.71 465.61 117.08 465.65 116.27 465.67 C 117.70 463.50 117.16 460.88 117.26 458.47 C 115.54 458.98 114.91 458.65 115.36 457.50 C 115.80 457.39 116.67 457.17 117.11 457.06 C 115.34 454.58 114.28 451.06 116.34 448.41 M 117.75 457.19 C 118.95 455.08 120.28 450.27 118.02 448.78 C 115.92 450.70 117.90 454.61 117.75 457.19 Z" />
<path fill="#ffffff" opacity="1.00" d=" M 152.09 448.51 C 153.37 448.23 154.63 447.92 155.90 447.60 C 155.77 450.69 155.80 453.79 156.42 456.84 L 153.58 455.91 C 153.66 456.22 153.83 456.83 153.91 457.14 C 158.97 456.29 158.66 463.68 155.73 465.99 C 155.09 463.22 157.27 458.97 154.17 457.33 C 153.91 460.30 154.02 463.29 154.30 466.27 C 152.04 464.13 150.89 460.43 153.13 457.85 C 152.85 457.43 152.56 457.03 152.27 456.65 C 152.70 456.28 153.57 455.54 154.00 455.17 C 153.55 452.91 155.30 449.08 152.09 448.51 Z" />
<path fill="#ffffff" opacity="1.00" d=" M 200.97 457.05 C 196.62 455.58 196.74 447.40 201.67 447.39 C 204.44 449.58 204.42 454.23 201.80 456.59 C 201.86 459.62 201.30 462.79 202.60 465.66 C 201.82 465.64 200.26 465.61 199.47 465.59 C 199.94 463.23 199.95 460.83 199.98 458.45 C 199.31 458.28 198.64 458.11 197.97 457.95 C 198.72 457.72 200.22 457.28 200.97 457.05 M 199.88 449.45 C 200.05 451.92 199.30 454.86 201.21 456.86 C 201.14 454.34 202.90 450.74 200.97 448.76 C 200.70 448.93 200.15 449.28 199.88 449.45 Z" />
<path fill="#ffffff" opacity="1.00" d=" M 262.34 448.38 C 263.62 448.15 264.90 447.89 266.17 447.61 C 266.08 450.17 266.06 452.73 266.08 455.30 C 266.56 455.52 267.53 455.97 268.01 456.19 C 266.38 456.26 264.76 456.31 263.13 456.39 C 263.53 455.70 263.94 455.02 264.34 454.35 C 263.96 452.28 265.12 449.07 262.34 448.38 Z" />
<path fill="#ffffff" opacity="1.00" d=" M 135.65 456.96 C 132.93 454.36 132.84 449.84 135.71 447.35 C 135.66 450.55 135.67 453.76 135.65 456.96 Z" />
<path fill="#ffffff" opacity="1.00" d=" M 137.17 448.07 C 140.75 449.24 139.53 454.44 137.57 456.72 C 137.71 459.76 136.40 463.56 139.01 465.88 C 138.21 465.65 136.60 465.20 135.80 464.97 C 139.89 466.52 140.26 471.44 138.11 474.65 C 137.31 474.64 135.71 474.64 134.92 474.64 C 133.36 472.10 132.87 468.64 135.16 466.34 C 134.78 466.06 134.03 465.51 133.65 465.23 L 135.54 465.76 C 135.57 463.34 135.62 460.93 135.65 458.52 C 135.24 458.40 134.41 458.14 133.99 458.01 C 138.65 456.91 137.23 451.52 137.17 448.07 M 136.31 467.32 C 135.77 469.10 135.20 472.55 136.69 473.70 C 137.21 471.92 137.86 468.39 136.31 467.32 Z" />
<path fill="#ffffff" opacity="1.00" d=" M 237.41 457.37 C 234.47 455.36 233.09 449.62 236.89 447.96 C 237.03 451.08 235.52 455.07 238.48 457.39 C 238.54 459.68 238.51 461.99 238.51 464.30 C 238.93 464.61 239.76 465.23 240.18 465.54 C 238.37 465.52 236.56 465.53 234.75 465.56 C 235.25 465.25 236.24 464.62 236.74 464.30 C 236.34 462.01 237.67 458.75 235.00 457.56 C 235.60 457.51 236.81 457.42 237.41 457.37 Z" />
<path fill="#ffffff" opacity="1.00" d=" M 246.25 456.60 C 243.25 455.10 242.73 449.46 245.84 448.14 C 246.41 451.02 244.82 454.45 247.15 456.86 C 247.84 453.71 247.57 450.50 247.42 447.32 C 250.27 449.52 250.56 454.28 247.61 456.53 C 250.19 458.95 250.41 463.21 247.83 465.73 C 247.85 468.73 247.02 472.03 248.67 474.77 C 248.39 474.89 247.83 475.12 247.55 475.23 C 250.57 477.28 250.16 481.74 247.78 484.11 C 250.35 486.82 250.32 491.30 247.40 493.78 C 247.59 490.39 247.82 486.97 247.18 483.62 C 244.87 486.62 246.08 490.52 246.42 493.93 C 243.29 491.63 242.87 486.93 245.76 484.27 C 243.39 481.84 242.95 477.68 245.68 475.31 C 243.52 474.57 243.56 474.25 245.79 474.33 C 245.39 471.79 247.24 467.74 243.90 466.80 C 244.60 466.77 246.00 466.71 246.71 466.69 C 243.39 464.40 242.49 458.89 246.25 456.60 M 246.18 456.91 C 246.00 460.02 245.01 463.62 247.16 466.31 C 247.27 463.28 248.91 459.20 246.18 456.91 M 246.54 476.16 C 246.00 478.25 245.98 480.76 246.53 482.87 C 247.96 481.80 247.91 477.26 246.54 476.16 Z" />
<path fill="#ffffff" opacity="1.00" d=" M 238.36 457.07 C 238.38 453.77 238.38 450.48 238.37 447.18 C 241.26 449.81 241.10 454.40 238.36 457.07 Z" />
<path fill="#ffffff" opacity="1.00" d=" M 629.10 452.00 C 642.72 452.00 656.33 452.00 669.95 452.00 C 669.94 453.96 669.94 455.93 669.96 457.91 C 666.92 458.35 660.39 458.74 662.36 463.46 C 666.61 471.38 672.03 478.64 676.73 486.31 C 681.45 479.39 686.11 472.39 689.96 464.94 C 690.58 463.38 691.74 461.16 690.15 459.82 C 687.94 458.31 685.10 458.38 682.57 457.91 C 682.57 455.94 682.57 453.97 682.58 452.00 C 695.57 452.02 708.55 451.96 721.54 452.03 C 721.52 453.99 721.52 455.96 721.54 457.93 C 717.16 458.47 712.62 458.62 708.48 460.29 C 704.88 461.74 702.09 464.56 699.60 467.45 C 692.87 475.37 687.26 484.15 681.13 492.53 C 688.04 503.04 695.17 513.40 702.15 523.87 C 704.67 527.56 707.12 531.48 710.72 534.24 C 714.98 537.43 720.45 537.98 725.53 538.89 C 725.51 540.87 725.51 542.85 725.51 544.85 C 710.72 544.83 695.92 544.84 681.13 544.84 C 681.12 542.86 681.12 540.89 681.13 538.92 C 683.96 538.43 687.03 538.31 689.53 536.70 C 691.17 535.04 689.75 532.83 688.84 531.19 C 683.40 522.68 677.88 514.22 672.45 505.71 C 667.32 513.24 662.98 521.27 658.39 529.14 C 657.37 531.16 655.77 533.59 656.94 535.88 C 659.49 538.12 663.09 538.20 666.27 538.91 C 666.26 540.88 666.26 542.86 666.27 544.85 C 652.91 544.83 639.55 544.84 626.20 544.84 C 626.19 542.85 626.19 540.86 626.20 538.89 C 632.30 538.12 639.01 537.15 643.40 532.36 C 653.02 522.26 661.11 510.81 668.29 498.89 C 662.12 489.35 655.96 479.80 649.79 470.27 C 647.40 466.71 644.89 462.93 641.03 460.83 C 637.35 458.90 633.15 458.52 629.11 457.99 C 629.10 455.99 629.10 453.99 629.10 452.00 Z" />
<path fill="#ffffff" opacity="1.00" d=" M 179.52 460.94 C 179.16 458.38 182.04 455.36 184.38 457.53 C 185.82 460.04 185.84 463.56 183.47 465.54 C 183.85 468.60 182.13 472.51 184.88 474.79 C 183.23 474.72 181.59 474.73 179.95 474.83 C 182.50 473.26 181.29 470.10 181.56 467.65 C 181.18 467.57 180.42 467.40 180.03 467.31 C 180.26 466.95 180.72 466.22 180.95 465.85 L 181.41 465.41 C 181.81 465.28 182.59 465.02 182.98 464.89 C 183.22 462.67 183.82 460.26 182.83 458.15 C 182.55 458.10 182.00 458.00 181.72 457.95 C 181.38 459.89 181.97 462.06 180.91 463.84 C 179.00 465.12 179.79 461.96 179.52 460.94 Z" />
<path fill="#ffffff" opacity="1.00" d=" M 789.69 467.67 C 795.09 460.88 803.41 456.79 812.00 456.00 C 821.19 455.16 830.49 456.39 839.37 458.84 C 839.38 464.72 839.37 470.61 839.37 476.49 C 837.34 476.48 835.32 476.48 833.31 476.48 C 831.51 471.34 829.25 465.54 824.00 463.05 C 816.79 459.94 807.48 461.12 802.09 467.12 C 795.06 474.66 793.42 485.42 792.70 495.30 C 804.49 495.30 816.29 495.30 828.09 495.30 C 828.09 497.81 828.09 500.33 828.10 502.85 C 816.23 502.83 804.37 502.84 792.51 502.84 C 792.81 513.38 793.64 524.88 800.28 533.57 C 805.73 540.88 816.46 541.80 824.33 538.27 C 829.75 535.58 831.90 529.45 833.88 524.15 C 835.84 524.15 837.80 524.15 839.77 524.15 C 839.77 530.17 839.77 536.20 839.77 542.23 C 829.75 544.86 819.33 546.38 808.96 545.71 C 800.69 545.14 792.46 541.26 787.68 534.33 C 781.31 525.25 779.92 513.77 779.71 502.97 C 779.51 490.65 781.64 477.45 789.69 467.67 Z" />
<path fill="#ffffff" opacity="1.00" d=" M 144.21 457.15 C 149.34 455.83 149.77 463.16 146.80 465.72 C 146.87 468.74 145.83 472.20 147.81 474.83 C 146.18 474.73 144.54 474.72 142.91 474.79 C 145.99 473.69 144.46 470.07 144.82 467.65 C 144.30 467.49 143.25 467.16 142.73 467.00 C 143.46 466.89 144.91 466.69 145.63 466.58 C 142.57 464.49 141.72 459.94 144.21 457.15 M 145.18 458.18 C 144.44 460.85 144.44 464.01 146.12 466.36 C 146.59 463.60 146.76 460.78 146.45 458.00 C 146.13 458.04 145.50 458.13 145.18 458.18 Z" />
<path fill="#ffffff" opacity="1.00" d=" M 217.84 457.83 C 218.66 457.41 219.47 456.99 220.28 456.57 C 220.24 459.47 219.74 462.49 220.72 465.31 C 220.01 465.32 218.61 465.35 217.91 465.36 C 218.46 462.87 218.37 460.31 217.84 457.83 Z" />
<path fill="#ffffff" opacity="1.00" d=" M 98.90 466.76 C 99.39 466.64 100.37 466.41 100.85 466.29 C 100.70 468.92 100.68 471.57 100.88 474.21 C 100.43 474.32 99.52 474.54 99.07 474.65 C 99.02 472.01 98.99 469.38 98.90 466.76 Z" />
<path fill="#ffffff" opacity="1.00" d=" M 107.86 475.02 C 105.66 472.55 105.08 468.18 108.02 466.05 C 112.74 465.37 112.73 472.56 110.10 475.01 C 112.01 477.36 112.70 481.01 110.60 483.48 C 109.33 484.00 107.27 484.22 106.73 482.60 C 105.24 480.10 106.17 477.13 107.86 475.02 M 108.16 466.68 C 108.54 469.10 107.05 472.34 108.82 474.27 L 109.44 474.39 C 110.09 471.87 109.78 469.25 109.75 466.69 C 109.36 466.68 108.56 466.68 108.16 466.68 M 108.05 476.34 C 107.99 478.76 108.07 481.18 108.29 483.59 C 108.63 483.32 109.33 482.78 109.68 482.51 C 109.48 480.46 110.95 477.10 109.00 475.85 C 108.76 475.97 108.29 476.22 108.05 476.34 Z" />
<path fill="#ffffff" opacity="1.00" d=" M 116.53 466.76 C 117.19 466.55 118.49 466.11 119.15 465.89 C 119.11 468.50 119.08 471.11 119.13 473.73 C 119.65 473.96 120.69 474.42 121.22 474.65 C 119.22 474.66 117.22 474.67 115.22 474.79 C 118.65 473.56 117.07 469.36 116.53 466.76 Z" />
<path fill="#ffffff" opacity="1.00" d=" M 155.10 464.52 C 156.34 467.47 155.72 470.71 155.90 473.82 C 156.43 474.04 157.50 474.47 158.03 474.69 C 155.94 474.68 153.85 474.69 151.76 474.70 C 152.32 474.47 153.42 474.01 153.98 473.77 C 154.04 471.34 153.95 468.90 153.51 466.51 L 154.54 466.60 L 155.10 464.52 Z" />
<path fill="#ffffff" opacity="1.00" d=" M 198.95 466.92 C 199.82 465.62 202.35 465.64 202.90 467.21 C 204.50 469.66 203.65 472.79 202.04 475.01 C 204.23 477.75 204.45 481.93 201.56 484.28 C 204.52 486.40 204.42 491.05 201.71 493.33 C 201.74 496.20 201.77 499.08 202.18 501.94 L 202.21 502.37 C 201.61 502.27 200.43 502.06 199.84 501.96 C 199.98 499.69 200.05 497.42 200.00 495.15 L 199.56 494.97 C 199.16 494.82 198.36 494.52 197.96 494.37 C 198.94 494.02 200.91 493.33 201.89 492.99 C 196.88 493.85 196.61 485.96 200.33 484.32 C 196.99 482.33 197.63 478.01 199.13 475.08 C 200.74 477.72 199.65 480.99 200.21 483.90 C 202.65 482.42 201.44 479.30 201.56 477.02 C 201.00 473.64 202.64 469.94 200.95 466.82 C 198.57 468.64 201.13 472.60 199.14 474.95 C 198.09 472.49 197.02 469.24 198.95 466.92 M 200.58 485.32 C 200.00 487.32 199.96 489.80 200.58 491.80 C 202.07 490.86 201.92 486.40 200.58 485.32 Z" />
<path fill="#ffffff" opacity="1.00" d=" M 208.56 466.68 C 209.18 466.50 210.41 466.12 211.02 465.94 C 211.51 468.83 209.43 473.29 212.86 474.79 C 210.86 474.68 208.85 474.66 206.85 474.65 C 207.42 474.43 208.57 473.98 209.14 473.75 C 209.18 471.38 209.03 469.01 208.56 466.68 Z" />
<path fill="#ffffff" opacity="1.00" d=" M 217.67 466.59 C 218.47 466.31 220.60 465.37 220.65 466.96 C 219.98 470.33 219.77 473.98 221.47 477.10 C 222.94 479.36 221.43 481.76 220.87 484.02 C 220.92 486.10 222.67 487.94 222.01 490.12 C 221.93 491.87 220.36 492.75 219.11 493.67 C 215.41 491.78 215.53 486.75 218.17 484.02 C 215.54 481.72 215.79 477.74 217.92 475.21 C 217.45 474.99 216.53 474.54 216.06 474.32 C 216.64 474.37 217.81 474.47 218.39 474.52 C 218.37 471.85 218.13 469.21 217.67 466.59 M 218.81 474.64 C 218.14 477.82 218.03 481.15 218.90 484.31 C 220.65 481.49 220.67 477.42 218.81 474.64 M 219.38 491.95 C 219.92 489.87 219.99 487.43 219.65 485.32 C 217.89 486.27 218.07 490.80 219.38 491.95 Z" />
<path fill="#ffffff" opacity="1.00" d=" M 226.82 466.23 C 227.65 466.26 229.31 466.31 230.14 466.34 C 231.67 469.12 231.82 472.68 229.35 475.00 C 231.92 477.51 231.94 481.75 229.33 484.25 C 229.76 487.19 228.02 491.18 231.01 493.13 C 229.34 493.15 227.68 493.18 226.01 493.19 C 228.14 491.13 228.37 486.82 225.89 484.98 C 226.51 484.99 227.74 485.02 228.35 485.03 C 228.96 481.74 230.52 477.59 227.80 474.83 C 227.34 478.10 227.55 481.40 227.59 484.69 C 224.86 482.02 224.75 477.66 227.34 474.89 C 224.84 472.60 225.01 468.87 226.82 466.23 M 228.53 473.87 C 229.03 471.78 229.06 469.29 228.54 467.21 C 227.06 468.20 227.16 472.80 228.53 473.87 Z" />
<path fill="#ffffff" opacity="1.00" d=" M 263.16 467.04 C 264.08 465.60 266.83 465.77 267.38 467.46 C 268.72 469.84 267.72 472.57 266.88 474.92 C 265.25 472.40 266.25 469.24 265.80 466.44 C 262.55 468.00 265.60 472.46 263.08 474.77 C 262.48 472.30 261.41 469.31 263.16 467.04 Z" />
<path fill="#ffffff" opacity="1.00" d=" M 160.92 476.59 C 162.30 476.08 163.68 475.57 165.05 475.05 C 165.04 477.67 165.01 480.28 165.06 482.91 C 165.60 483.15 166.68 483.63 167.22 483.87 C 165.17 483.85 163.13 483.80 161.09 483.84 C 164.41 482.97 162.81 479.14 163.17 476.69 C 162.61 476.66 161.48 476.61 160.92 476.59 Z" />
<path fill="#ffffff" opacity="1.00" d=" M 235.50 476.36 C 235.98 474.97 237.51 475.15 238.68 475.34 C 241.18 477.44 241.07 481.70 238.70 483.87 C 237.04 481.51 240.21 477.13 236.90 475.30 C 236.00 478.19 237.85 481.78 236.13 484.32 C 234.81 481.94 233.81 478.84 235.50 476.36 Z" />
<path fill="#ffffff" opacity="1.00" d=" M 272.29 476.04 C 273.30 475.73 274.31 475.44 275.32 475.12 C 275.67 477.99 274.12 481.60 276.57 483.80 L 275.91 484.14 C 275.03 486.67 274.47 490.32 276.31 492.55 L 275.90 493.13 C 274.83 495.67 275.37 498.49 275.28 501.16 C 275.74 501.42 276.66 501.93 277.12 502.18 C 275.38 502.22 273.64 502.24 271.90 502.26 C 272.27 501.93 273.02 501.29 273.39 500.96 C 273.41 499.12 273.42 497.28 273.47 495.46 C 273.06 495.25 272.25 494.83 271.84 494.62 L 273.74 494.01 C 273.76 493.82 273.80 493.44 273.82 493.25 C 273.44 493.08 272.69 492.75 272.32 492.58 C 272.62 492.30 273.22 491.73 273.52 491.45 C 273.18 489.43 274.11 486.88 272.23 485.40 C 273.12 485.27 273.75 484.86 274.14 484.18 C 273.57 484.11 272.45 483.99 271.89 483.92 C 274.37 482.21 273.84 478.23 272.29 476.04 Z" />
<path fill="#ffffff" opacity="1.00" d=" M 170.94 475.50 C 171.45 476.01 171.96 476.52 172.46 477.05 C 172.78 478.79 171.53 482.34 173.19 483.21 C 175.54 481.32 172.89 477.42 174.86 475.02 C 176.53 477.92 176.80 481.73 174.26 484.24 C 176.50 486.29 177.24 491.51 174.18 492.80 C 173.92 490.29 174.25 487.76 174.08 485.25 C 173.84 485.23 173.37 485.19 173.13 485.17 C 171.56 487.72 172.74 490.90 172.62 493.71 C 169.72 491.38 169.53 486.83 172.22 484.29 C 169.92 481.84 170.18 478.53 170.94 475.50 Z" />
<path fill="#ffffff" opacity="1.00" d=" M 261.99 476.62 C 263.36 476.09 264.73 475.56 266.11 475.04 C 266.08 477.74 266.06 480.44 266.13 483.14 C 266.63 483.31 267.65 483.66 268.16 483.83 C 267.37 483.94 265.79 484.16 265.01 484.27 C 263.96 484.10 262.93 483.85 261.93 483.51 C 262.50 483.45 263.64 483.33 264.21 483.27 C 264.22 481.08 264.21 478.89 264.20 476.70 C 263.65 476.68 262.54 476.64 261.99 476.62 Z" />
<path fill="#ffffff" opacity="1.00" d=" M 96.95 485.17 C 98.25 484.94 99.54 484.69 100.83 484.40 C 100.75 486.72 100.71 489.04 100.66 491.36 C 101.00 491.79 101.68 492.63 102.02 493.05 C 100.36 492.99 98.71 492.93 97.05 492.95 C 99.94 491.88 98.74 488.45 98.72 486.14 C 98.28 485.90 97.40 485.41 96.95 485.17 Z" />
<path fill="#ffffff" opacity="1.00" d=" M 115.29 485.47 C 116.58 485.11 117.86 484.71 119.14 484.31 C 119.58 487.20 117.63 491.45 120.95 493.07 C 118.95 492.95 116.95 492.88 114.95 492.79 C 115.52 492.59 116.66 492.20 117.24 492.00 C 116.80 489.77 118.59 485.81 115.29 485.47 Z" />
<path fill="#ffffff" opacity="1.00" d=" M 134.19 485.98 C 134.80 484.21 137.47 483.73 138.49 485.39 C 140.07 487.83 139.78 491.50 137.26 493.23 C 134.95 495.01 135.28 498.48 136.14 500.95 C 136.43 501.03 137.00 501.17 137.29 501.25 C 137.57 499.20 136.90 496.94 138.04 495.09 C 140.99 496.08 139.32 503.59 135.39 502.55 C 132.96 500.17 132.85 495.66 135.71 493.49 C 133.69 491.57 132.85 488.52 134.19 485.98 M 136.34 485.32 C 135.82 487.12 135.14 490.52 136.68 491.71 C 137.29 489.93 137.78 486.50 136.34 485.32 Z" />
<path fill="#ffffff" opacity="1.00" d=" M 144.48 484.48 C 147.20 483.14 148.89 486.76 148.63 489.00 C 148.80 491.04 147.27 492.51 146.07 493.94 C 150.19 495.06 149.11 501.74 145.42 502.98 C 143.55 501.54 142.26 499.26 142.84 496.86 C 142.64 495.23 145.27 494.32 144.37 492.75 C 142.12 490.53 142.25 486.67 144.48 484.48 M 145.19 485.21 C 144.58 487.32 144.53 489.69 145.17 491.81 C 145.49 491.93 146.11 492.17 146.42 492.29 C 146.65 489.92 146.70 487.53 146.38 485.18 C 146.09 485.18 145.49 485.20 145.19 485.21 M 145.16 495.52 C 145.21 497.17 145.21 498.83 145.16 500.49 C 145.41 500.49 145.89 500.50 146.14 500.50 C 146.48 498.82 146.48 497.15 146.14 495.49 C 145.90 495.50 145.41 495.51 145.16 495.52 Z" />
<path fill="#ffffff" opacity="1.00" d=" M 151.89 485.56 C 153.23 485.13 154.58 484.71 155.91 484.28 C 156.45 486.99 154.21 491.71 157.76 492.67 C 156.91 492.77 156.06 492.90 155.21 493.03 C 158.60 495.11 158.34 499.66 156.14 502.48 C 155.53 505.43 155.68 508.62 156.56 511.53 C 155.06 511.47 153.56 511.44 152.07 511.44 C 152.73 511.05 153.39 510.66 154.05 510.28 C 154.00 508.25 153.96 506.24 153.89 504.23 C 153.41 504.10 152.45 503.85 151.98 503.73 C 152.74 503.56 154.27 503.21 155.03 503.04 C 150.96 501.29 150.83 494.86 154.90 493.07 C 154.12 492.93 152.56 492.67 151.78 492.54 C 152.33 492.41 153.43 492.16 153.98 492.04 C 153.98 489.99 153.97 487.95 153.96 485.92 C 153.44 485.83 152.41 485.65 151.89 485.56 M 155.19 502.95 C 155.94 499.74 156.07 496.35 155.11 493.17 C 153.44 496.08 153.44 500.07 155.19 502.95 Z" />
<path fill="#ffffff" opacity="1.00" d=" M 252.83 485.60 C 254.21 485.16 255.59 484.73 256.97 484.28 C 256.90 486.90 256.87 489.53 256.91 492.16 C 257.44 492.26 258.50 492.46 259.03 492.55 C 258.34 492.71 256.95 493.01 256.26 493.17 C 259.60 495.02 259.81 500.35 256.66 502.47 C 259.85 504.99 259.28 509.81 256.51 512.44 C 256.02 509.77 258.15 505.80 256.00 503.82 C 255.74 503.97 255.20 504.28 254.94 504.43 C 254.90 507.13 255.16 509.81 255.50 512.49 C 252.55 509.95 251.88 504.91 255.32 502.49 C 251.91 500.40 252.24 494.73 255.91 493.06 C 254.93 492.90 253.96 492.75 252.99 492.61 C 256.42 492.28 254.58 488.18 255.03 485.89 C 254.48 485.82 253.38 485.67 252.83 485.60 M 255.82 501.34 L 256.54 501.55 C 257.05 498.76 256.94 495.87 256.13 493.15 C 255.08 495.46 253.92 499.32 255.82 501.34 Z" />
<path fill="#ffffff" opacity="1.00" d=" M 234.59 485.11 C 235.42 485.06 237.07 484.96 237.90 484.91 C 239.86 486.59 237.00 490.76 239.64 492.47 C 239.41 492.85 238.95 493.61 238.72 493.99 C 238.68 496.79 237.74 499.94 239.69 502.35 C 238.84 502.32 237.15 502.27 236.30 502.24 C 236.36 499.65 237.79 496.21 235.37 494.30 C 235.74 494.16 236.48 493.88 236.84 493.75 C 236.41 493.46 235.54 492.89 235.11 492.61 C 237.84 491.57 236.26 488.22 236.64 486.04 C 236.13 485.81 235.10 485.34 234.59 485.11 Z" />
<path fill="#ffffff" opacity="1.00" d=" M 264.38 493.48 C 261.51 491.15 261.40 486.53 264.31 484.17 C 264.89 486.67 263.01 490.35 265.01 492.18 C 267.39 490.95 265.10 487.31 266.18 485.18 C 269.23 486.21 268.39 491.81 265.77 493.44 C 268.88 495.49 268.75 500.39 265.87 502.59 C 266.03 505.55 266.00 508.55 266.51 511.49 C 265.75 511.51 264.22 511.54 263.45 511.56 C 264.54 508.89 264.64 505.79 263.25 503.22 C 263.70 503.24 264.61 503.28 265.07 503.30 C 261.78 501.15 260.94 495.89 264.38 493.48 M 264.48 494.46 C 263.98 497.27 264.11 500.20 264.92 502.95 C 265.91 500.58 267.10 496.71 265.20 494.65 L 264.48 494.46 Z" />
<path fill="#ffffff" opacity="1.00" d=" M 160.86 494.52 C 162.25 494.18 163.65 493.86 165.04 493.53 C 165.04 495.90 165.03 498.28 165.10 500.65 C 165.63 501.83 166.20 503.01 166.52 504.28 C 167.27 506.90 167.06 509.70 165.05 511.72 C 167.56 514.30 167.41 518.12 165.33 520.92 C 167.40 523.73 167.41 527.34 165.33 530.15 C 167.26 532.72 167.23 535.89 166.08 538.78 L 164.91 538.52 C 164.46 536.09 165.94 532.56 164.00 530.79 C 162.33 532.65 163.60 535.86 163.25 538.23 C 162.97 538.40 162.39 538.73 162.10 538.89 C 160.94 535.97 160.83 532.77 162.77 530.15 C 160.73 527.32 160.72 523.76 162.77 520.94 C 160.70 518.11 160.71 514.41 162.96 511.71 C 160.61 509.23 159.96 503.39 164.35 502.92 C 165.60 502.23 163.09 502.10 162.73 501.87 C 163.01 499.56 163.16 497.24 163.26 494.93 C 162.66 494.82 161.46 494.62 160.86 494.52 M 163.45 504.13 C 162.58 506.60 163.35 509.67 163.87 512.25 C 165.15 509.89 165.46 506.48 164.62 504.08 C 164.33 504.09 163.75 504.12 163.45 504.13 M 163.45 513.15 C 163.45 515.29 162.14 518.70 164.00 520.18 C 166.24 518.53 164.37 514.57 164.66 512.11 C 164.36 512.37 163.75 512.89 163.45 513.15 M 163.49 521.42 C 163.77 523.98 161.51 528.22 164.60 529.57 C 164.45 526.99 166.59 522.76 163.49 521.42 Z" />
<path fill="#ffffff" opacity="1.00" d=" M 180.00 494.19 C 181.15 493.99 182.30 493.79 183.45 493.57 C 183.41 496.47 183.24 499.40 183.79 502.28 C 182.99 502.28 181.40 502.30 180.60 502.31 C 181.73 499.90 182.66 495.90 180.00 494.19 Z" />
<path fill="#ffffff" opacity="1.00" d=" M 189.38 501.63 C 188.46 498.93 187.98 493.97 191.80 493.51 C 195.47 494.50 195.34 500.29 192.57 502.33 C 192.60 504.91 192.59 507.50 192.59 510.09 C 193.00 510.49 193.83 511.31 194.24 511.72 L 192.50 511.07 C 193.12 514.25 191.39 518.24 193.98 520.78 C 192.33 520.67 190.68 520.66 189.04 520.76 C 191.83 519.26 190.41 515.89 190.75 513.37 L 189.76 513.67 C 189.67 513.04 189.51 511.79 189.43 511.17 L 190.63 512.01 C 191.21 508.74 189.51 504.83 191.69 502.11 C 191.11 501.99 189.96 501.75 189.38 501.63 M 191.51 494.70 C 190.95 496.66 191.25 498.76 191.12 500.79 C 192.97 500.52 192.77 495.48 191.51 494.70 Z" />
<path fill="#ffffff" opacity="1.00" d=" M 209.28 493.32 C 214.13 493.56 213.70 500.77 210.56 503.18 C 210.73 500.57 210.96 497.97 210.97 495.35 C 210.73 495.21 210.24 494.91 210.00 494.76 C 209.75 494.92 209.26 495.22 209.01 495.37 C 209.03 497.98 209.26 500.58 209.43 503.19 C 206.65 500.69 205.99 495.54 209.28 493.32 Z" />
<path fill="#ffffff" opacity="1.00" d=" M 126.56 502.93 C 123.76 500.39 123.58 495.74 126.57 493.31 C 126.47 496.52 126.44 499.72 126.56 502.93 Z" />
<path fill="#ffffff" opacity="1.00" d=" M 127.78 493.18 C 130.62 495.10 130.94 499.09 129.16 501.84 C 128.92 501.83 128.43 501.82 128.19 501.81 C 128.09 498.93 128.25 496.04 127.78 493.18 Z" />
<path fill="#ffffff" opacity="1.00" d=" M 170.77 494.04 C 171.53 494.03 173.06 493.99 173.82 493.97 C 174.44 496.46 174.22 499.05 174.38 501.60 C 173.79 501.74 172.62 502.02 172.04 502.17 L 172.18 500.34 C 172.33 498.75 172.38 497.16 172.47 495.59 C 172.05 495.20 171.20 494.43 170.77 494.04 Z" />
<path fill="#ffffff" opacity="1.00" d=" M 227.63 502.54 C 224.60 500.31 224.77 495.60 227.62 493.32 C 227.57 496.08 227.35 498.84 227.65 501.60 C 227.96 501.41 228.57 501.05 228.87 500.86 C 229.76 498.39 229.02 495.71 228.78 493.20 C 231.82 495.09 232.38 500.17 229.24 502.19 C 229.94 503.85 231.57 505.19 231.32 507.19 C 231.60 509.37 229.28 510.77 229.37 512.88 C 229.58 515.50 228.24 518.97 230.89 520.72 C 229.26 520.65 227.63 520.68 226.02 520.81 C 227.85 519.39 227.73 517.03 227.30 515.00 C 227.14 513.94 225.92 512.54 227.78 512.02 C 224.81 509.63 224.59 504.97 227.63 502.54 M 228.54 510.85 C 229.05 508.65 229.01 506.12 228.52 503.93 C 227.11 505.02 227.18 509.62 228.54 510.85 Z" />
<path fill="#ffffff" opacity="1.00" d=" M 106.34 503.45 C 107.56 503.25 108.77 503.00 109.98 502.75 C 109.87 505.70 109.77 508.68 110.46 511.59 C 109.73 511.57 108.25 511.54 107.52 511.52 C 107.75 508.90 109.43 504.90 106.34 503.45 Z" />
<path fill="#ffffff" opacity="1.00" d=" M 117.37 502.39 C 122.32 502.42 122.47 512.03 117.31 511.72 C 114.32 509.54 114.60 504.63 117.37 502.39 M 117.16 504.55 C 117.56 506.55 116.55 509.28 117.94 510.85 C 119.43 509.58 119.94 504.84 118.02 503.81 C 117.80 504.00 117.37 504.37 117.16 504.55 Z" />
<path fill="#ffffff" opacity="1.00" d=" M 217.13 503.40 C 222.85 499.97 224.24 512.33 218.40 511.54 C 215.48 509.87 216.11 506.04 217.13 503.40 M 218.54 508.15 C 218.34 508.65 218.89 511.84 219.66 510.15 C 219.70 508.13 220.15 505.91 219.37 504.01 C 217.94 504.50 218.78 506.95 218.54 508.15 Z" />
<path fill="#ffffff" opacity="1.00" d=" M 245.10 510.91 C 242.88 508.42 243.42 503.69 246.77 502.43 C 247.55 502.93 248.34 503.44 249.14 503.95 C 249.56 506.13 250.18 508.69 248.68 510.62 C 247.89 511.79 246.05 511.98 245.10 510.91 M 246.56 503.98 C 245.99 506.08 245.97 508.59 246.52 510.70 C 247.93 509.56 247.92 505.08 246.56 503.98 Z" />
<path fill="#ffffff" opacity="1.00" d=" M 124.88 503.47 C 125.62 503.35 127.10 503.12 127.84 503.01 C 128.40 505.25 128.88 509.07 127.89 511.11 C 127.50 511.11 126.70 511.12 126.31 511.12 C 126.34 508.96 126.43 506.81 126.48 504.66 C 126.08 504.36 125.28 503.76 124.88 503.47 Z" />
<path fill="#ffffff" opacity="1.00" d=" M 181.48 511.76 C 178.78 509.23 178.74 504.48 182.02 502.41 C 181.41 505.63 181.43 508.92 181.89 512.16 C 184.33 509.61 182.96 506.04 183.09 502.97 C 186.37 504.39 185.90 509.61 183.33 511.66 C 186.46 514.21 186.22 521.29 181.14 520.87 C 179.05 518.16 178.84 514.20 181.48 511.76 M 182.20 513.22 C 181.54 514.99 180.96 518.72 182.64 519.75 C 182.84 517.85 183.59 514.45 182.20 513.22 Z" />
<path fill="#ffffff" opacity="1.00" d=" M 199.74 503.58 C 200.25 503.35 201.27 502.90 201.78 502.68 C 201.85 505.64 201.36 508.74 202.60 511.55 C 201.06 511.47 199.53 511.43 198.00 511.42 C 198.68 511.02 199.36 510.62 200.04 510.24 C 199.96 508.40 199.91 506.57 199.80 504.74 L 199.74 503.58 Z" />
<path fill="#ffffff" opacity="1.00" d=" M 107.57 512.52 C 108.18 512.39 109.40 512.11 110.00 511.98 C 109.92 514.57 109.89 517.17 109.96 519.78 C 110.49 519.99 111.53 520.43 112.05 520.65 C 109.96 520.63 107.86 520.63 105.76 520.66 C 106.34 520.44 107.48 519.99 108.05 519.77 C 108.11 517.34 108.01 514.91 107.57 512.52 Z" />
<path fill="#ffffff" opacity="1.00" d=" M 126.47 520.67 C 123.14 518.53 124.16 513.60 126.74 511.25 C 126.97 514.35 125.05 518.44 127.95 520.74 C 128.41 517.90 127.95 515.03 128.14 512.19 C 131.58 513.42 130.90 521.68 126.47 520.67 Z" />
<path fill="#ffffff" opacity="1.00" d=" M 170.97 513.05 C 172.42 512.74 173.89 512.50 175.35 512.24 C 175.96 514.57 176.68 517.18 175.26 519.39 C 173.54 522.24 174.38 525.68 174.20 528.83 C 174.65 528.94 175.55 529.15 176.00 529.26 C 175.54 529.54 174.61 530.08 174.15 530.35 C 174.18 532.91 174.27 535.47 174.13 538.03 C 173.70 538.41 172.84 539.16 172.41 539.54 L 172.38 538.21 C 172.35 536.27 172.37 534.34 172.39 532.41 C 172.08 532.25 171.45 531.91 171.13 531.75 C 171.56 531.39 172.40 530.68 172.83 530.33 C 172.50 530.18 171.84 529.90 171.51 529.75 C 172.41 527.48 172.40 525.05 172.43 522.66 C 171.46 519.51 169.39 516.41 170.97 513.05 M 173.07 513.21 C 172.44 515.02 171.89 518.61 173.47 519.77 C 173.77 517.89 174.53 514.38 173.07 513.21 Z" />
<path fill="#ffffff" opacity="1.00" d=" M 98.17 530.06 C 96.58 527.35 95.91 522.91 99.09 521.04 C 103.27 520.97 103.22 526.44 101.82 529.18 C 101.24 529.26 100.07 529.42 99.49 529.51 C 101.11 527.28 101.55 523.13 99.19 521.19 C 98.57 524.11 99.61 527.33 98.17 530.06 Z" />
<path fill="#ffffff" opacity="1.00" d=" M 151.95 524.94 C 152.01 522.99 153.56 520.16 155.88 521.31 C 159.00 523.44 157.87 527.93 155.79 530.43 C 155.85 533.08 155.90 535.73 155.92 538.39 C 155.19 538.50 154.46 538.59 153.73 538.67 C 153.66 536.11 155.19 532.49 152.19 531.06 C 152.90 531.07 154.33 531.08 155.05 531.09 C 153.47 529.38 151.41 527.54 151.95 524.94 M 154.25 521.32 C 153.98 523.98 153.86 526.68 154.19 529.35 C 154.54 529.36 155.24 529.36 155.59 529.37 C 155.42 526.75 156.98 523.01 154.25 521.32 Z" />
<path fill="#ffffff" opacity="1.00" d=" M 207.54 523.01 C 208.01 521.20 210.83 520.30 211.92 522.06 C 213.69 524.37 212.69 527.44 211.90 529.92 C 210.16 527.42 211.11 524.24 210.64 521.42 C 207.50 523.11 210.39 527.48 208.11 529.93 C 207.48 527.71 206.43 525.26 207.54 523.01 Z" />
<path fill="#ffffff" opacity="1.00" d=" M 263.61 521.67 C 269.15 518.58 269.85 531.60 264.02 529.67 C 261.54 527.96 261.56 523.71 263.61 521.67 M 264.22 527.06 C 264.13 528.23 264.65 529.08 265.78 529.61 C 266.05 526.87 266.05 524.11 265.76 521.38 C 263.48 522.40 264.34 525.10 264.22 527.06 Z" />
<path fill="#ffffff" opacity="1.00" d=" M 179.83 531.36 C 181.03 530.98 182.22 530.62 183.42 530.26 C 183.39 532.93 183.33 535.62 183.63 538.29 C 182.90 538.58 182.18 538.89 181.46 539.21 L 181.48 538.21 C 181.53 536.27 181.56 534.33 181.63 532.41 C 181.18 532.15 180.28 531.62 179.83 531.36 Z" />
<path fill="#ffffff" opacity="1.00" d=" M 185.19 547.33 C 187.08 545.46 190.67 547.34 190.01 550.00 C 190.01 551.82 187.60 552.95 186.10 552.15 C 183.95 551.75 183.71 548.56 185.19 547.33 Z" />
<path fill="#ffffff" opacity="1.00" d=" M 535.04 610.31 C 559.27 610.54 583.51 610.33 607.74 610.46 C 607.67 613.41 607.60 616.36 607.55 619.31 C 610.54 619.36 613.53 619.36 616.53 619.33 C 616.96 632.88 616.50 646.44 616.82 659.99 C 601.66 660.29 586.50 660.03 571.33 660.13 C 571.33 663.06 571.31 665.99 571.30 668.94 C 580.38 669.25 589.46 668.97 598.55 669.20 C 598.56 672.25 598.58 675.31 598.60 678.38 C 586.48 678.34 574.37 678.27 562.25 678.45 C 562.43 684.41 562.36 690.38 562.28 696.34 C 568.34 696.34 574.39 696.33 580.45 696.37 C 580.35 702.31 580.38 708.25 580.44 714.19 C 577.38 714.31 574.31 714.40 571.24 714.44 C 571.26 711.44 571.30 708.46 571.33 705.47 C 568.33 705.42 565.33 705.41 562.33 705.43 C 562.27 715.98 562.35 726.54 562.22 737.10 C 559.24 737.07 556.26 737.04 553.28 737.03 C 553.28 741.58 553.30 746.13 553.30 750.68 C 550.21 750.67 547.14 750.67 544.06 750.65 C 544.01 753.65 544.00 756.65 543.98 759.66 C 541.00 759.67 538.03 759.71 535.06 759.75 C 535.05 771.83 534.93 783.90 535.15 795.98 C 538.07 795.94 541.00 795.90 543.93 795.87 C 543.97 798.88 544.01 801.90 544.05 804.93 C 538.01 804.95 531.96 804.97 525.92 804.85 C 525.95 795.86 525.96 786.88 525.94 777.90 C 522.91 777.90 519.87 777.87 516.85 777.80 C 516.87 774.86 516.89 771.92 516.90 768.99 C 513.91 768.95 510.93 768.96 507.94 769.04 C 507.91 772.00 507.86 774.96 507.81 777.94 C 504.78 777.92 501.74 777.92 498.71 777.95 C 498.66 780.94 498.62 783.94 498.60 786.94 C 495.62 786.95 492.65 786.94 489.68 786.93 C 489.67 789.92 489.68 792.90 489.68 795.90 C 492.65 795.91 495.63 795.89 498.61 795.92 C 498.66 798.90 498.69 801.90 498.71 804.90 C 492.66 804.95 486.61 804.93 480.57 804.90 C 480.57 792.93 480.55 780.96 480.58 768.99 C 477.54 768.87 474.51 768.81 471.48 768.76 C 471.54 765.74 471.60 762.74 471.66 759.74 C 468.61 759.70 465.57 759.73 462.53 759.80 C 462.54 756.73 462.55 753.66 462.55 750.61 C 459.47 750.65 456.40 750.73 453.33 750.82 C 453.33 747.74 453.33 744.67 453.33 741.60 C 450.32 741.62 447.32 741.65 444.32 741.69 C 444.31 738.65 444.31 735.62 444.32 732.59 C 441.31 732.59 438.30 732.60 435.30 732.62 C 435.21 714.53 435.33 696.43 435.20 678.34 C 438.29 678.35 441.38 678.43 444.47 678.55 C 444.27 684.48 444.29 690.43 444.37 696.37 C 447.33 696.33 450.29 696.31 453.25 696.29 C 453.32 699.34 453.40 702.38 453.48 705.44 C 456.49 705.39 459.51 705.37 462.53 705.37 C 462.60 708.34 462.66 711.30 462.73 714.28 C 468.71 714.43 474.68 714.45 480.66 714.19 C 480.61 711.27 480.57 708.35 480.53 705.45 C 483.56 705.39 486.61 705.33 489.65 705.27 C 489.62 702.31 489.58 699.36 489.55 696.42 C 494.10 696.36 498.66 696.35 503.22 696.36 C 503.24 693.35 503.26 690.35 503.29 687.35 C 507.82 687.31 512.36 687.31 516.90 687.35 C 516.91 684.31 516.93 681.27 516.95 678.23 C 519.93 678.30 522.92 678.35 525.92 678.41 C 525.97 658.73 525.93 639.05 525.99 619.37 C 529.01 619.39 532.03 619.38 535.05 619.36 C 535.02 616.34 535.02 613.32 535.04 610.31 M 543.96 623.79 C 543.98 626.87 544.00 629.95 544.02 633.04 C 547.11 633.06 550.20 633.09 553.30 633.13 C 553.30 630.01 553.30 626.90 553.30 623.79 C 550.18 623.78 547.07 623.78 543.96 623.79 Z" />
</g>
<g id="#040404ff">
</g>
<g id="#010101ff">
</g>
<g id="#060606ff">
</g>
<g id="#232323ff">
</g>
<g id="#f1f1f1ff">
<path fill="#f1f1f1" opacity="1.00" d=" M 208.72 457.33 C 209.25 457.26 210.31 457.13 210.84 457.06 C 211.13 459.91 210.83 462.84 211.51 465.66 C 210.75 465.66 209.23 465.67 208.46 465.67 C 209.36 462.95 209.03 460.10 208.72 457.33 Z" />
</g>
<g id="#020202ff">
</g>
<g id="#616161ff">
</g>
<g id="#414141ff">
</g>
<g id="#fafafaff">
<path fill="#fafafa" opacity="1.00" d=" M 172.34 511.10 C 172.88 508.20 171.48 504.62 173.77 502.33 C 174.06 505.28 174.12 508.25 174.25 511.22 C 173.78 511.19 172.82 511.13 172.34 511.10 Z" />
</g>
<g id="#070707ff">
</g>
<g id="#0f0f0fff">
</g>
<g id="#111111ff">
</g>
<g id="#101010ff">
</g>
<g id="#121212ff">
</g>
<g id="#aeaeaeff">
<path fill="#aeaeae" opacity="1.00" d=" M 146.09 538.76 C 146.43 538.78 147.12 538.82 147.46 538.84 C 149.55 538.95 151.65 538.88 153.73 538.67 C 154.46 538.59 155.19 538.50 155.92 538.39 C 157.96 538.73 160.02 538.99 162.10 538.89 C 162.39 538.73 162.97 538.40 163.25 538.23 C 163.67 538.31 164.49 538.45 164.91 538.52 L 166.08 538.78 C 168.20 539.15 170.32 538.70 172.38 538.21 L 172.41 539.54 C 172.84 539.16 173.70 538.41 174.13 538.03 C 176.51 538.99 179.06 539.07 181.48 538.21 L 181.46 539.21 C 182.18 538.89 182.90 538.58 183.63 538.29 C 185.92 538.84 188.25 539.17 190.58 539.54 C 182.06 540.15 173.51 539.89 164.98 539.77 C 158.63 539.75 152.26 540.26 145.92 539.62 L 146.09 538.76 Z" />
</g>
</svg>
