<?xml version="1.0" encoding="UTF-8" ?>
<!DOCTYPE svg PUBLIC "-//W3C//DTD SVG 1.1//EN" "http://www.w3.org/Graphics/SVG/1.1/DTD/svg11.dtd">
<svg width="1175pt" height="1007pt" viewBox="0 0 1175 1007" version="1.1" xmlns="http://www.w3.org/2000/svg">
<g id="#2b633bff">
<path fill="#2b633b" opacity="1.00" d=" M 389.39 15.86 C 397.03 22.93 404.40 30.30 411.35 38.06 C 363.35 86.50 315.05 134.65 267.05 183.09 C 219.86 230.58 172.72 278.11 125.67 325.74 C 81.77 372.37 54.62 433.71 46.75 497.07 C 41.61 537.40 44.72 578.65 55.35 617.87 C 64.71 653.16 79.49 687.04 99.23 717.76 C 130.75 766.69 175.04 807.41 226.73 834.23 C 257.23 850.16 290.11 861.49 323.91 867.91 C 417.41 885.65 519.03 856.94 588.11 791.15 C 606.73 772.77 625.06 754.09 643.55 735.58 C 720.49 658.18 797.29 580.64 874.43 503.45 C 881.79 510.84 889.08 518.29 896.21 525.91 C 810.07 612.19 724.37 698.91 638.33 785.28 C 619.14 804.81 600.08 824.74 577.75 840.76 C 526.49 878.82 463.57 900.05 400.03 903.79 C 326.20 908.18 251.42 888.27 188.77 849.19 C 138.87 817.71 96.22 774.63 65.89 723.97 C 39.89 680.73 22.59 632.15 16.36 582.03 C 15.14 574.08 15.57 566.02 15.24 558.01 C 14.37 521.56 13.72 484.35 23.90 448.98 C 35.91 400.44 59.29 354.77 91.64 316.64 C 99.22 307.61 107.49 299.20 115.84 290.90 C 207.02 199.21 297.84 107.17 389.39 15.86 Z" />
<path fill="#2b633b" opacity="1.00" d=" M 168.88 324.93 C 256.92 236.33 344.79 147.58 433.01 59.17 C 440.25 66.61 447.57 73.97 454.87 81.36 C 360.86 176.52 266.20 271.05 172.18 366.20 C 130.30 408.99 107.16 468.46 105.73 528.03 C 103.48 600.83 133.00 673.36 183.36 725.64 C 204.88 747.71 229.42 767.08 256.98 781.07 C 296.05 801.18 340.05 811.75 384.01 811.23 C 420.37 810.82 456.73 802.50 489.26 786.14 C 519.96 771.84 544.75 748.05 568.19 724.15 C 655.61 635.91 743.22 547.84 830.82 459.78 C 838.32 467.09 845.74 474.49 852.77 482.26 C 766.55 568.56 680.87 655.39 594.79 741.81 C 585.29 751.27 575.96 760.90 566.31 770.22 C 540.56 794.56 509.55 813.12 476.32 825.30 C 438.94 838.96 398.66 844.96 358.94 841.89 C 290.80 836.80 225.02 807.40 174.89 761.13 C 154.36 742.07 136.17 720.44 121.44 696.59 C 102.61 666.24 89.03 632.66 81.27 597.80 C 63.05 517.13 81.90 428.38 133.17 363.22 C 143.86 349.36 156.64 337.36 168.88 324.93 Z" />
<path fill="#2b633b" opacity="1.00" d=" M 197.47 383.47 C 290.49 290.00 383.24 196.26 476.33 102.86 C 483.02 110.90 492.74 116.43 497.34 126.14 C 425.44 198.63 353.42 271.00 281.49 343.46 C 263.01 362.01 244.67 380.69 226.07 399.12 C 214.01 411.18 202.27 423.82 193.50 438.54 C 167.00 481.51 160.61 535.40 172.86 584.06 C 188.78 649.47 237.11 705.62 298.64 732.50 C 331.86 746.91 368.97 753.08 404.96 748.06 C 441.50 743.15 476.93 727.31 503.47 701.48 C 598.38 606.61 692.54 510.99 787.47 416.14 C 794.81 423.39 802.10 430.71 809.37 438.02 C 754.63 493.70 699.54 549.02 644.49 604.39 C 607.38 641.63 570.46 679.06 533.37 716.33 C 522.28 727.32 510.65 737.92 497.42 746.31 C 460.78 770.26 416.59 781.84 372.95 780.69 C 337.23 779.95 302.10 769.81 270.41 753.59 C 212.20 723.40 166.62 669.50 147.18 606.81 C 132.47 562.46 132.32 513.55 146.13 468.96 C 156.03 436.90 173.44 406.99 197.47 383.47 Z" />
<path fill="#2b633b" opacity="1.00" d=" M 763.85 104.74 C 786.16 102.35 808.66 102.79 831.02 104.21 C 899.33 109.28 965.21 136.24 1019.47 177.69 C 1084.57 227.26 1133.95 298.21 1154.24 377.77 C 1175.85 455.76 1169.29 541.28 1135.83 614.98 C 1121.77 645.94 1102.84 674.74 1079.56 699.54 C 1068.78 710.76 1057.70 721.68 1046.79 732.78 C 961.58 818.82 876.30 904.80 790.82 990.58 C 784.60 982.58 773.54 978.04 771.12 967.43 C 865.21 872.40 959.55 777.62 1053.60 682.56 C 1102.62 631.55 1130.74 562.29 1135.70 492.07 C 1138.88 451.58 1132.62 410.75 1120.55 372.10 C 1106.84 328.81 1084.73 288.11 1055.32 253.47 C 1004.13 192.22 930.34 150.97 851.81 137.57 C 828.75 133.74 805.25 131.63 781.89 133.58 C 712.93 138.53 644.81 165.57 594.09 213.09 C 583.39 223.35 573.12 234.06 562.60 244.51 C 477.07 330.50 391.41 416.36 306.15 502.61 C 301.39 496.79 294.43 493.14 290.15 486.90 C 287.56 483.36 287.68 478.07 290.76 474.87 C 375.62 389.01 460.94 303.61 546.05 218.00 C 555.93 208.20 565.51 198.10 575.66 188.58 C 626.96 140.98 694.40 111.84 763.85 104.74 Z" />
<path fill="#2b633b" opacity="1.00" d=" M 245.10 423.05 C 336.42 330.63 428.42 238.89 519.59 146.34 C 527.08 153.75 534.44 161.29 541.78 168.85 C 447.71 263.74 353.22 358.21 259.42 453.36 C 242.23 471.03 231.99 494.79 229.22 519.15 C 224.97 556.29 235.94 594.82 258.60 624.48 C 268.17 636.49 278.64 647.93 291.01 657.12 C 320.39 679.36 358.11 691.27 394.95 687.12 C 411.99 685.06 429.05 680.18 443.42 670.54 C 460.12 659.57 473.55 644.58 487.49 630.46 C 572.87 544.29 658.63 458.49 743.87 372.18 C 751.34 379.57 758.76 387.01 766.13 394.50 C 712.70 448.28 659.28 502.08 605.86 555.88 C 567.08 595.07 528.01 633.97 489.36 673.29 C 477.49 685.07 464.49 696.03 449.39 703.43 C 414.82 720.93 373.87 722.99 336.67 713.55 C 307.39 706.37 280.46 690.95 258.33 670.62 C 231.21 645.66 211.04 612.93 202.16 577.08 C 198.16 561.04 196.57 544.42 197.40 527.92 C 198.18 496.50 208.90 465.14 228.69 440.61 C 233.68 434.31 239.50 428.77 245.10 423.05 Z" />
<path fill="#2b633b" opacity="1.00" d=" M 694.41 185.50 C 732.42 169.79 773.94 163.10 814.97 164.98 C 882.93 168.25 948.93 196.35 999.89 241.16 C 1042.24 278.35 1074.03 327.31 1091.09 381.01 C 1103.79 421.21 1109.12 464.19 1103.17 506.10 C 1096.04 560.64 1073.95 613.88 1036.90 654.92 C 1026.67 666.00 1015.79 676.45 1005.26 687.24 C 919.94 773.36 834.45 859.31 749.16 945.45 C 739.14 941.77 733.30 932.34 725.94 925.25 C 820.67 830.20 915.17 734.91 1009.54 639.51 C 1035.92 612.35 1054.73 578.26 1065.19 541.97 C 1076.33 503.64 1078.13 462.72 1070.76 423.51 C 1059.35 362.00 1026.58 304.67 979.28 263.72 C 924.78 214.98 849.91 189.24 776.94 195.91 C 740.36 199.45 704.34 210.76 673.00 230.09 C 657.21 239.78 642.59 251.38 629.55 264.54 C 536.21 358.51 442.63 452.25 349.45 546.38 C 342.15 539.21 335.04 531.86 327.99 524.46 C 421.57 430.57 514.93 336.45 608.51 242.55 C 632.84 217.91 662.41 198.63 694.41 185.50 Z" />
<path fill="#2b633b" opacity="1.00" d=" M 733.73 236.78 C 776.75 223.15 823.86 223.08 867.03 236.12 C 896.44 245.18 924.33 259.39 948.48 278.52 C 975.44 299.74 998.04 326.50 1014.38 356.67 C 1024.90 375.94 1032.52 396.70 1037.84 417.97 C 1053.02 481.09 1039.92 551.27 1000.08 602.96 C 989.90 616.36 977.33 627.64 965.68 639.71 C 878.52 727.66 791.27 815.53 704.02 903.39 C 696.86 895.93 688.50 889.44 682.92 880.59 C 774.07 790.50 863.65 698.83 954.13 608.06 C 959.73 602.35 965.60 596.90 970.80 590.81 C 989.53 569.20 1002.41 542.78 1008.93 515.00 C 1016.37 483.52 1015.46 450.22 1007.12 419.02 C 986.22 340.87 919.46 276.00 839.62 260.54 C 785.06 248.57 724.78 262.52 682.45 299.37 C 672.08 308.67 662.64 318.96 652.69 328.72 C 566.03 415.79 479.27 502.76 392.90 590.13 C 385.84 582.76 378.66 575.52 371.32 568.42 C 454.22 484.95 537.26 401.60 620.18 318.15 C 632.41 306.06 644.19 293.51 656.68 281.68 C 678.38 260.94 705.19 245.86 733.73 236.78 Z" />
<path fill="#2b633b" opacity="1.00" d=" M 730.21 304.13 C 763.98 286.22 804.32 284.93 841.07 292.93 C 902.74 307.74 954.59 356.71 973.95 416.96 C 982.34 444.03 985.33 473.10 980.20 501.10 C 975.11 530.30 961.17 558.14 939.50 578.54 C 847.44 672.04 754.49 764.66 662.46 858.19 C 652.52 854.22 646.55 844.88 638.91 837.94 C 730.60 746.32 821.70 654.11 912.95 562.05 C 919.49 555.55 926.22 549.13 931.42 541.45 C 950.42 514.43 956.42 479.45 950.33 447.24 C 939.54 382.02 882.67 327.55 817.12 319.31 C 797.91 317.12 778.03 318.42 759.67 324.69 C 742.20 330.75 726.36 341.23 713.70 354.68 C 621.29 447.70 528.71 540.54 436.36 633.62 C 429.17 626.41 421.99 619.19 414.76 612.03 C 469.21 557.42 523.56 502.72 577.92 448.02 C 615.93 409.66 654.20 371.56 692.06 333.06 C 703.41 321.80 715.74 311.19 730.21 304.13 Z" />
</g>
</svg>
